<svg width="72" height="36" viewBox="0 0 72 36" fill="none" xmlns="http://www.w3.org/2000/svg">
<g clip-path="url(#clip0_67_22)">
<path d="M21.2771 18.9884L39.3459 35.5878C39.6402 35.8626 40.031 36 40.4218 36H49.6468C50.4863 36 51.1714 35.3706 51.1714 34.5994C51.1714 34.1738 50.9639 33.7927 50.6407 33.54L40.9139 24.6087H40.9091C40.3157 24.1566 39.4183 24.1832 38.8586 24.6974C38.2989 25.2115 38.27 26.0315 38.7669 26.5811L41.0876 28.7176L42.3083 29.839C42.3083 29.839 42.3179 29.8478 42.3228 29.8523L45.9703 33.2032H41.0538L32.6539 25.4863L24.5097 18.0044L41.0538 2.80128H45.9703L30.5021 17.0071C29.9038 17.5568 29.9086 18.4432 30.5021 18.9884L34.468 22.6319L35.544 23.6203C36.1374 24.161 37.1024 24.161 37.691 23.6203C38.2844 23.0751 38.2844 22.1886 37.691 21.6479L36.6151 20.6594L33.7202 18L50.7179 2.38907C51.3113 1.84388 51.3161 0.961832 50.7227 0.412214C50.4235 0.137405 50.0327 0 49.6468 0H40.4218C40.0021 0 39.6209 0.150702 39.3459 0.407781L21.2771 17.0071C20.6837 17.5523 20.6837 18.4432 21.2771 18.9884Z" fill="#1E8A95"/>
<path d="M0.443632 18.9884L18.5124 35.5878C18.8115 35.8626 19.2023 36 19.5931 36H28.8133C29.6528 36 30.3379 35.3706 30.3379 34.5994C30.3379 34.1738 30.1304 33.7927 29.8072 33.54L20.0804 24.6087C19.4822 24.1566 18.5896 24.1832 18.0299 24.6974C17.4702 25.2115 17.4413 26.0315 17.9382 26.5811L20.259 28.7176L21.4796 29.839C21.4796 29.839 21.4893 29.8478 21.4941 29.8523L25.1416 33.2032H20.2252L11.8253 25.4863L3.68105 18.0044L20.2204 2.80128H25.1368L9.66859 17.0071C9.07031 17.5568 9.07514 18.4432 9.66859 18.9884L13.6345 22.6319L14.7105 23.6203C15.2991 24.161 16.2689 24.161 16.8575 23.6203C17.4461 23.0751 17.4461 22.1886 16.8575 21.6479L15.7816 20.6594L12.8867 18L29.8844 2.38907C30.4778 1.84388 30.4826 0.961832 29.8892 0.412214C29.5901 0.137405 29.1992 0 28.8133 0H19.5931C19.1734 0 18.7922 0.150702 18.5124 0.407781L0.443632 17.0071C-0.149814 17.5523 -0.149814 18.4432 0.443632 18.9884Z" fill="#1E8A95"/>
<path d="M42.1057 18.9884L60.1745 35.5878C60.4736 35.8626 60.8644 36 61.2504 36H70.4754C71.3149 36 72 35.3706 72 34.5994C72 34.1738 71.7925 33.7927 71.4693 33.54L61.7474 24.6087H61.7425C61.1491 24.1566 60.2517 24.1832 59.692 24.6974C59.1323 25.2115 59.1034 26.0315 59.6003 26.5811L61.9211 28.7176L63.1417 29.839C63.1417 29.839 63.1514 29.8478 63.1562 29.8523L66.8037 33.2032H61.8873L53.4874 25.4863L45.3432 18.0044L61.8825 2.80128H66.7989L51.3307 17.0071C50.7324 17.5568 50.7372 18.4432 51.3307 18.9884L55.2967 22.6319L56.3726 23.6203C56.9612 24.161 57.931 24.161 58.5196 23.6203C59.113 23.0751 59.113 22.1886 58.5196 21.6479L57.4437 20.6594L54.5488 18L71.5465 2.38907C72.1399 1.84388 72.1447 0.961832 71.5513 0.412214C71.257 0.141837 70.8662 0 70.4754 0H61.2504C60.8307 0 60.4495 0.150702 60.1745 0.407781L42.1057 17.0071C41.5123 17.5523 41.5123 18.4432 42.1057 18.9884Z" fill="#1E8A95"/>
</g>
<defs>
<clipPath id="clip0_67_22">
<rect width="72" height="36" fill="white" transform="matrix(-1 0 0 1 72 0)"/>
</clipPath>
</defs>
</svg>
