<svg width="11" height="9" viewBox="0 0 11 9" fill="none" xmlns="http://www.w3.org/2000/svg">
<g clip-path="url(#clip0_297_519)">
<path d="M2.93717 1.76074H2.87866C2.69286 1.76074 2.54224 1.91745 2.54224 2.11075V7.65003C2.54224 7.84334 2.69286 8.00004 2.87866 8.00004H2.93717C3.12297 8.00004 3.27359 7.84334 3.27359 7.65003V2.11075C3.27359 1.91745 3.12297 1.76074 2.93717 1.76074Z" fill="#A3A3A3"/>
<path d="M0.181474 3.69933L0.139056 3.6765C-0.00136319 3.60346 -0.0423188 3.45128 0.0498314 3.33867L2.66807 0.110971C2.76022 -0.00164114 2.94891 -0.0335985 3.08932 0.0394469L3.13174 0.0622736C3.27216 0.135319 3.31312 0.287497 3.22097 0.400109L0.602732 3.62781C0.510582 3.74042 0.321894 3.77237 0.181474 3.69933Z" fill="#A3A3A3"/>
<path d="M5.86694 3.65233L5.82452 3.67515C5.68556 3.75124 5.49541 3.72233 5.4018 3.60972L2.70458 0.42463C2.6095 0.31354 2.64607 0.161362 2.78503 0.0852727L2.82745 0.062446C2.9664 -0.0136431 3.15655 0.0152708 3.25017 0.127883L5.94592 3.31449C6.041 3.42558 6.00443 3.57776 5.86548 3.65385L5.86694 3.65233Z" fill="#A3A3A3"/>
</g>
<g clip-path="url(#clip1_297_519)">
<path d="M7.09751 6.2556L7.15602 6.25528C7.34181 6.25425 7.49156 6.09672 7.49049 5.90341L7.45985 0.364217C7.45878 0.170916 7.30729 0.0150472 7.12149 0.0160752L7.06299 0.016399C6.87719 0.017427 6.72744 0.174962 6.72851 0.368264L6.75916 5.90746C6.76023 6.10076 6.91171 6.25663 7.09751 6.2556Z" fill="#BABE31"/>
<path d="M9.84225 4.30173L9.88479 4.32432C10.0256 4.39659 10.0674 4.54854 9.97589 4.66166L7.37555 7.90379C7.28403 8.01691 7.09552 8.04991 6.9547 7.97764L6.91215 7.95505C6.77133 7.88279 6.72953 7.73084 6.82106 7.61772L9.42139 4.37558C9.51292 4.26246 9.70143 4.22946 9.84225 4.30173Z" fill="#BABE31"/>
<path d="M4.1572 4.38017L4.19949 4.35711C4.33803 4.28025 4.52834 4.30811 4.62257 4.4202L7.33737 7.59032C7.43306 7.70088 7.39734 7.85326 7.2588 7.93011L7.21651 7.95318C7.07798 8.03003 6.88767 8.00217 6.79344 7.89008L4.08009 4.71844C3.9844 4.60787 4.02012 4.45549 4.15866 4.37864L4.1572 4.38017Z" fill="#BABE31"/>
</g>
<defs>
<clipPath id="clip0_297_519">
<rect width="6" height="8" fill="white"/>
</clipPath>
<clipPath id="clip1_297_519">
<rect width="6" height="8" fill="white" transform="translate(10.0442 8) rotate(179.683)"/>
</clipPath>
</defs>
</svg>
