<svg width="13" height="7" viewBox="0 0 13 7" fill="none" xmlns="http://www.w3.org/2000/svg">
<g clip-path="url(#clip0_361_382)">
<path d="M8.74831 3.34698L5.97173 1.0609C5.9265 1.02305 5.86666 1.00438 5.80696 1.0048L4.39763 1.01467C4.26937 1.01556 4.16532 1.10371 4.16606 1.21083C4.16648 1.26992 4.19854 1.32264 4.24818 1.35739L5.74285 2.58741L5.74359 2.5874C5.83469 2.64956 5.97177 2.64491 6.05677 2.5729C6.14177 2.50089 6.1454 2.38698 6.06894 2.31117L5.71232 2.01694L5.52474 1.8625C5.52474 1.8625 5.52326 1.86128 5.52252 1.86067L4.96202 1.39918L5.71312 1.39392L7.00391 2.45669L8.25541 3.4871L5.74268 5.6163L4.99158 5.62155L7.3409 3.63202C7.43177 3.55505 7.43017 3.43193 7.33898 3.35685L6.72954 2.85507L6.5642 2.71894C6.47302 2.64448 6.3256 2.64551 6.2362 2.72124C6.14606 2.79759 6.14692 2.92071 6.23811 2.99518L6.40345 3.13131L6.84829 3.49757L4.26667 5.68388C4.17654 5.76024 4.17666 5.88274 4.26786 5.95844C4.31382 5.99629 4.37366 6.01496 4.43263 6.01454L5.84196 6.00468C5.90609 6.00423 5.96418 5.98289 6.00594 5.94689L8.75024 3.62216C8.84037 3.5458 8.8395 3.42207 8.74831 3.34698Z" fill="#1E8A95"/>
<path d="M11.9309 3.32471L9.15435 1.03862C9.10838 1.00077 9.04855 0.982109 8.98884 0.982527L7.58024 0.992388C7.45199 0.993286 7.34793 1.08143 7.34868 1.18855C7.3491 1.24765 7.38116 1.30036 7.43079 1.33511L8.92547 2.56513C9.01731 2.62728 9.15365 2.62263 9.23865 2.55063C9.32365 2.47862 9.32728 2.3647 9.25082 2.2889L8.8942 1.99466L8.70662 1.84022C8.70662 1.84022 8.70514 1.839 8.7044 1.83839L8.1439 1.3769L8.895 1.37164L10.1858 2.43441L11.4373 3.46483L8.9253 5.59402L8.17419 5.59928L10.5235 3.60974C10.6144 3.53277 10.6128 3.40966 10.5216 3.33457L9.91216 2.83279L9.74682 2.69667C9.65637 2.62219 9.50821 2.62323 9.41881 2.69896C9.32942 2.77531 9.33028 2.89843 9.42073 2.9729L9.58606 3.10903L10.0309 3.47529L7.44929 5.6616C7.35916 5.73796 7.35928 5.86047 7.45047 5.93617C7.49644 5.97401 7.55628 5.99268 7.61525 5.99227L9.02384 5.9824C9.08797 5.98196 9.14606 5.96062 9.18856 5.92461L11.9329 3.59988C12.023 3.52352 12.0221 3.39979 11.9309 3.32471Z" fill="#1E8A95"/>
<path d="M5.56618 3.36926L2.7896 1.08318C2.74364 1.04533 2.6838 1.02666 2.62483 1.02708L1.2155 1.03694C1.08724 1.03784 0.983186 1.12599 0.983936 1.2331C0.98435 1.2922 1.01642 1.34492 1.06605 1.37966L2.55999 2.60969L2.56072 2.60969C2.65183 2.67184 2.7889 2.66719 2.8739 2.59518C2.95891 2.52317 2.96253 2.40926 2.88608 2.33346L2.52946 2.03922L2.34188 1.88478C2.34188 1.88478 2.3404 1.88356 2.33965 1.88295L1.77915 1.42146L2.53025 1.4162L3.82105 2.47897L5.07254 3.50939L2.56055 5.63857L1.80945 5.64383L4.15877 3.6543C4.24964 3.57733 4.24804 3.45421 4.15685 3.37913L3.54741 2.87735L3.38208 2.74122C3.29162 2.66675 3.14347 2.66779 3.05407 2.74352C2.96393 2.81987 2.9648 2.94299 3.05598 3.01746L3.22132 3.15359L3.66616 3.51985L1.08454 5.70616C0.994409 5.78251 0.99453 5.90502 1.08573 5.98072C1.13095 6.01796 1.1908 6.03724 1.2505 6.03682L2.65983 6.02695C2.72396 6.02651 2.78205 6.00517 2.82381 5.96917L5.56811 3.64443C5.65824 3.56808 5.65737 3.44435 5.56618 3.36926Z" fill="#1E8A95"/>
</g>
<defs>
<clipPath id="clip0_361_382">
<rect width="11" height="5" fill="white" transform="matrix(0.999976 -0.00700079 -0.00700079 -0.999976 1.01758 6.03845)"/>
</clipPath>
</defs>
</svg>
