<svg width="77" height="46" viewBox="0 0 77 46" fill="none" xmlns="http://www.w3.org/2000/svg">
<g clip-path="url(#clip0_4_64)">
<path d="M27.6745 28.778H21.1304L20.6257 30.9008H23.5574L19.9769 36.8703H27.1779L27.7867 34.5878H24.2222L27.6745 28.778Z" fill="#188E9A"/>
<path d="M34.5951 36.7825C34.6752 36.7585 34.7954 36.7027 34.9716 36.6308V36.8703L37.4867 36.8942V32.7762C37.4867 32.1617 37.3666 31.5871 37.1183 31.0524C36.878 30.5337 36.5336 30.0788 36.085 29.6798C35.6605 29.2887 35.1638 28.9934 34.5951 28.778C34.0264 28.5705 33.4337 28.4587 32.8329 28.4587C32.2322 28.4587 31.6395 28.5705 31.0707 28.7859C30.502 28.9934 30.0054 29.2887 29.5809 29.6798C29.1483 30.0708 28.8039 30.5257 28.5556 31.0524C28.3073 31.5871 28.1791 32.1617 28.1791 32.7762C28.1791 33.5902 28.3954 34.3324 28.8199 34.9948C29.2445 35.6492 29.8132 36.168 30.5341 36.5431C31.255 36.9181 32.0159 37.1017 32.8249 37.1017C33.4417 37.1017 34.0264 36.99 34.5871 36.7745M30.7183 32.7762C30.7183 32.4091 30.8144 32.066 31.0147 31.7547C31.2069 31.4435 31.4712 31.1961 31.7997 31.0125C32.1281 30.837 32.4725 30.7412 32.841 30.7412C33.2094 30.7412 33.5619 30.829 33.8903 31.0125C34.2187 31.1961 34.483 31.4435 34.6752 31.7547C34.8675 32.066 34.9716 32.4091 34.9716 32.7762C34.9716 33.3349 34.7633 33.8137 34.3388 34.2207C33.9223 34.6197 33.4257 34.8193 32.849 34.8193C32.2722 34.8193 31.7836 34.6197 31.3671 34.2207C30.9426 33.8137 30.7343 33.3349 30.7343 32.7762" fill="#188E9A"/>
<path d="M44.6557 28.9375L44.4714 28.8577L44.2872 28.7779C43.7185 28.5704 43.1338 28.4667 42.533 28.4667C41.9323 28.4667 41.3395 28.5704 40.7708 28.7779C40.2181 28.9854 39.7135 29.2887 39.273 29.6877C38.8324 30.0867 38.496 30.5416 38.2477 31.0683C37.9994 31.603 37.8712 32.1697 37.8712 32.7842C37.8712 33.3987 37.9914 33.9892 38.2397 34.508C38.48 35.0267 38.8244 35.4896 39.273 35.8966C39.7215 36.3036 40.2262 36.6069 40.7708 36.8064C41.3235 37.0218 41.9163 37.1336 42.533 37.1336C43.342 37.1336 44.103 36.942 44.8239 36.567C45.5448 36.1919 46.1135 35.6731 46.538 35.0187C46.9626 34.3723 47.1788 33.6461 47.1788 32.848V25.6176H44.6477V28.9455L44.6557 28.9375ZM44.0229 34.2446C43.6064 34.6516 43.1097 34.8511 42.541 34.8511C41.9723 34.8511 41.4677 34.6516 41.0512 34.2446C40.6267 33.8376 40.4184 33.3508 40.4184 32.7921C40.4184 32.425 40.5145 32.0899 40.7148 31.7786C40.907 31.4674 41.1713 31.22 41.4997 31.0364C41.8282 30.8529 42.1726 30.7571 42.549 30.7571C42.9255 30.7571 43.2619 30.8529 43.5903 31.0364C43.9188 31.22 44.1831 31.4674 44.3753 31.7786C44.5676 32.0819 44.6717 32.425 44.6717 32.7921C44.6717 33.3588 44.4634 33.8376 44.0389 34.2446" fill="#188E9A"/>
<path d="M68.6616 18.483H56.935V7.3421H52.4013V20.6457C52.4013 21.364 52.2892 21.8987 52.0569 22.2578C51.8326 22.6249 51.4962 22.8643 51.0476 22.9681C50.6151 23.0798 50.0063 23.1356 49.2294 23.1356L50.6551 27.2297C51.9047 27.2297 52.938 27.102 53.739 26.8466C54.548 26.6072 55.1808 26.2321 55.6614 25.7134C56.118 25.2345 56.4464 24.6041 56.6546 23.83C56.7668 23.3751 56.8389 22.8563 56.8869 22.2977H68.6616V18.483Z" fill="#188E9A"/>
<path d="M53.4907 5.30708C53.8431 5.51458 54.2356 5.61833 54.6682 5.61833C55.1007 5.61833 55.5012 5.5066 55.8617 5.29112C56.2221 5.07565 56.5025 4.78835 56.7187 4.44518C56.927 4.09404 57.0311 3.69501 57.0311 3.24012C57.0311 2.78522 56.927 2.41014 56.7187 2.05101C56.5025 1.68391 56.2141 1.39661 55.8617 1.18911C55.5012 0.981616 55.1007 0.877869 54.6682 0.877869C54.2356 0.877869 53.8351 0.981616 53.4907 1.18911C53.1383 1.39661 52.8499 1.68391 52.6256 2.05101C52.4174 2.41014 52.3132 2.80917 52.3132 3.24012C52.3132 3.67107 52.4254 4.0701 52.6416 4.44518C52.8499 4.80431 53.1383 5.09161 53.4987 5.30708" fill="#188E9A"/>
<path d="M43.9027 21.8189L48.8529 21.8348V1.74774H43.9027V21.8189Z" fill="#188E9A"/>
<path d="M40.2101 8.94621C39.4893 8.25988 38.6162 7.71721 37.5829 7.31818C36.5576 6.92713 35.4522 6.7356 34.2667 6.7356C33.2975 6.7356 32.3604 6.88723 31.4392 7.19049C30.5101 7.50173 29.693 7.94066 28.9801 8.50728L31.3431 11.7075C31.7516 11.3643 32.2002 11.1089 32.6808 10.9414C33.1854 10.7738 33.714 10.686 34.2747 10.686C35.316 10.686 36.1971 11.0212 36.918 11.6915C37.647 12.3619 38.0154 13.1919 38.0154 14.1815C38.0154 14.9556 37.8552 15.6499 37.5428 16.2644C37.2384 16.8789 36.7899 17.3657 36.1891 17.7248C35.6124 18.0919 34.9396 18.2755 34.1866 18.2755C33.0652 18.2755 32.1121 17.9244 31.3111 17.2141L28.8199 20.3584C29.1804 20.7335 29.685 21.0687 30.3258 21.364C30.9826 21.6593 31.6555 21.8747 32.3443 22.0184C33.0332 22.162 33.674 22.2339 34.2667 22.2339C35.9168 22.2339 37.3746 21.8907 38.6322 21.1964C39.8897 20.4941 40.859 19.5843 41.5318 18.4511C42.2046 17.3019 42.5411 16.0649 42.5411 14.7561C42.5411 13.559 42.3408 12.4736 41.9323 11.5C41.5158 10.5104 40.9391 9.65648 40.2101 8.94621Z" fill="#188E9A"/>
<path d="M53.0021 34.8911C52.5776 34.8911 52.2091 34.7873 51.8807 34.5798C51.5443 34.3803 51.296 34.109 51.1278 33.7658C50.9516 33.4226 50.8634 33.0396 50.8634 32.6006C50.8634 32.05 51.0637 31.5871 51.4722 31.212C51.8727 30.8369 52.3693 30.6534 52.946 30.6534C53.2584 30.6534 53.5548 30.7013 53.8351 30.797C54.1075 30.8928 54.3558 31.0364 54.5801 31.228L55.8937 29.4403C55.4932 29.1211 55.0366 28.8817 54.524 28.7061C54.0114 28.5385 53.4827 28.4507 52.946 28.4507C52.2812 28.4507 51.6725 28.5625 51.0957 28.7779C50.519 29.0014 50.0304 29.3047 49.6299 29.6877C49.2214 30.0788 48.901 30.5576 48.6687 31.1083C48.4444 31.651 48.3243 32.2575 48.3243 32.9278C48.3243 33.6621 48.5085 34.3484 48.885 34.9868C49.2614 35.6173 49.7981 36.128 50.503 36.5191C51.2079 36.9022 52.0169 37.0937 52.938 37.0937C53.2664 37.0937 53.6189 37.0538 54.0114 36.974C54.3958 36.8942 54.7723 36.7745 55.1408 36.6069C55.5012 36.4473 55.7816 36.2557 55.9818 36.0482L54.5961 34.2925C54.1556 34.6915 53.6189 34.8831 52.9941 34.8831" fill="#188E9A"/>
<path d="M63.407 29.6638C62.9665 29.2647 62.4619 28.9615 61.9092 28.762C61.3405 28.5545 60.7477 28.4427 60.147 28.4427C59.5462 28.4427 58.9615 28.5465 58.3928 28.762C57.8321 28.9695 57.3355 29.2727 56.8949 29.6718C56.4624 30.0628 56.1179 30.5257 55.8696 31.0524C55.6213 31.5871 55.4932 32.1617 55.4932 32.7762C55.4932 33.5982 55.7094 34.3404 56.134 35.0028C56.5585 35.6652 57.1272 36.1839 57.8481 36.559C58.569 36.9421 59.33 37.1256 60.139 37.1256C60.7557 37.1256 61.3485 37.0139 61.9012 36.7984C62.4538 36.5909 62.9505 36.2877 63.399 35.8886C63.8396 35.4816 64.184 35.0187 64.4323 34.492C64.6726 33.9733 64.8008 33.3987 64.8008 32.7682C64.8008 32.1378 64.6806 31.5791 64.4243 31.0444C64.184 30.5177 63.8396 30.0548 63.399 29.6558M61.6368 34.2366C61.2203 34.6437 60.7237 34.8432 60.147 34.8432C59.5702 34.8432 59.0816 34.6437 58.6651 34.2366C58.2406 33.8296 58.0323 33.3428 58.0323 32.7842C58.0323 32.4171 58.1285 32.0739 58.3287 31.7627C58.5209 31.4514 58.7853 31.204 59.1137 31.0205C59.4421 30.8369 59.7865 30.7412 60.155 30.7412C60.5234 30.7412 60.8759 30.8369 61.2043 31.0205C61.5327 31.204 61.797 31.4514 61.9893 31.7627C62.1815 32.0739 62.2856 32.4171 62.2856 32.7842C62.2856 33.3508 62.0774 33.8296 61.6528 34.2366" fill="#188E9A"/>
<path d="M73.4916 28.4667H73.3475C72.4183 28.5225 71.6734 28.738 71.1207 29.1291C70.56 28.738 69.815 28.5146 68.8859 28.4667H68.7417C66.4028 28.5944 65.2333 29.7994 65.2333 32.0978V36.8862H67.7725V32.0978C67.7725 31.228 68.0929 30.781 68.7417 30.7651H68.8859C69.4866 30.789 69.807 31.1641 69.8471 31.9143V36.8942H72.3943V31.9143C72.4343 31.1721 72.7547 30.789 73.3555 30.7651H73.4996C74.1485 30.789 74.4689 31.228 74.4689 32.0978V36.8862H77.008V32.0978C77.008 29.8074 75.8386 28.5944 73.4996 28.4667" fill="#188E9A"/>
<path d="M22.9086 8.62698C21.7311 8.10026 21.2104 8.19603 19.9929 7.45384C19.6004 7.21442 18.5992 6.56001 18.5992 5.84176C18.5992 5.36293 18.8154 4.97188 19.24 4.6766C19.6485 4.38132 20.081 4.23767 20.5456 4.23767C21.1704 4.23767 21.7231 4.35738 22.1957 4.60477C22.6442 4.82823 23.1569 5.22726 23.7496 5.77792L26.1766 2.32233C25.4077 1.58812 24.5105 1.01352 23.4933 0.590547C22.492 0.191519 21.4668 -0.00799561 20.4255 -0.00799561C19.296 -0.00799561 18.2387 0.239402 17.2535 0.726217C16.2362 1.22899 15.4272 1.94724 14.8185 2.88097C14.1937 3.82268 13.8813 4.93198 13.8813 6.19291C13.8813 7.84488 14.2417 9.08985 14.9626 9.91983C15.6835 10.7578 16.5486 11.3883 17.5659 11.8032L18.3188 12.1145L19.0557 12.4098C19.6084 12.6332 20.089 12.8407 20.5056 13.0163C21.4427 13.4233 21.9153 13.974 21.9153 14.6603C21.9153 15.2429 21.667 15.6898 21.1624 15.993C20.6497 16.3043 20.1131 16.4639 19.5524 16.4639C18.3909 16.4639 17.4217 16.0808 16.6367 15.3386C16.5566 14.5246 16.3484 13.7665 16.02 13.0642C15.5874 12.1305 14.9707 11.3005 14.1697 10.5742C13.3606 9.84801 12.4715 9.30533 11.4783 8.9462C10.4851 8.55515 9.42774 8.36362 8.32237 8.36362C6.87256 8.36362 5.50285 8.70679 4.21324 9.38513C2.92363 10.0555 1.89836 10.9812 1.14542 12.1624C0.881088 12.5694 0.656808 12.9924 0.480589 13.4313C0.0480494 14.5645 -1.051e-05 15.602 -1.051e-05 16.0649C-0.0160305 17.645 0.112129 29.2647 0.400489 45.2418H4.87006C4.75792 37.8518 4.64578 30.4618 4.53364 23.0638L4.86205 23.2075L5.19046 23.3511C6.21574 23.7182 7.26505 23.9018 8.33037 23.9018C9.3957 23.9018 10.469 23.7182 11.4863 23.3511C12.4876 22.984 13.3847 22.4413 14.1777 21.7231C14.7223 21.2363 15.1709 20.6856 15.5474 20.0871C15.8197 20.2227 16.1001 20.3425 16.3884 20.4462C17.4698 20.8452 18.5832 21.0447 19.7446 21.0447C21.7471 21.0447 23.3891 20.4622 24.6788 19.305C25.9764 18.1558 26.6252 16.5038 26.6252 14.349C26.6252 13.6308 26.6412 11.9549 25.5278 10.5264C24.6788 9.441 23.5013 8.9063 22.9086 8.64294V8.62698ZM11.6145 17.9722C11.262 18.5309 10.7975 18.9698 10.2047 19.305C9.61998 19.6322 8.9952 19.7998 8.33037 19.7998C7.66555 19.7998 7.04878 19.6322 6.46405 19.305C5.87932 18.9778 5.40673 18.5309 5.05429 17.9722C4.70185 17.4375 4.52563 16.831 4.52563 16.1606C4.52563 15.1471 4.9021 14.2852 5.66305 13.551C6.40798 12.8248 7.29709 12.4577 8.32237 12.4577C9.34764 12.4577 10.2448 12.8248 10.9977 13.551C11.7586 14.2852 12.1351 15.1551 12.1351 16.1606C12.1351 16.823 11.9589 17.4295 11.6065 17.9722" fill="#188E9A"/>
<path d="M11.2541 39.8071C9.53992 39.8071 8.14618 41.1957 8.14618 42.9035C8.14618 44.6114 9.53992 46 11.2541 46C12.9682 46 14.3619 44.6114 14.3619 42.9035C14.3619 41.1957 12.9682 39.8071 11.2541 39.8071Z" fill="#BEC331"/>
<path d="M19.4483 39.8071C17.7341 39.8071 16.3404 41.1957 16.3404 42.9035C16.3404 44.6114 17.7341 46 19.4483 46C21.1624 46 22.5561 44.6114 22.5561 42.9035C22.5561 41.1957 21.1624 39.8071 19.4483 39.8071Z" fill="#BEC331"/>
<path d="M27.6425 39.8071C25.9283 39.8071 24.5346 41.1957 24.5346 42.9035C24.5346 44.6114 25.9283 46 27.6425 46C29.3566 46 30.7504 44.6114 30.7504 42.9035C30.7504 41.1957 29.3566 39.8071 27.6425 39.8071Z" fill="#BEC331"/>
<path d="M8.33838 25.5139V36.8782H11.278L11.2861 31.6669L13.4808 33.8296L15.8437 31.5791V36.8702L18.8235 36.8782V25.5139L13.4808 29.8952L8.33838 25.5139Z" fill="#188E9A"/>
<path d="M76.3272 11.4122C75.8946 10.4705 75.2779 9.64054 74.4929 8.92229C73.6999 8.20404 72.8028 7.66934 71.8096 7.31021C70.7843 6.93512 69.735 6.74359 68.6536 6.74359C67.5723 6.74359 66.531 6.93512 65.5137 7.31021C64.5125 7.6853 63.6153 8.22798 62.8304 8.93825C62.0534 9.64054 61.4446 10.4625 60.9961 11.4202C60.5475 12.3779 60.3312 13.4074 60.3312 14.5087C60.3312 15.9851 60.7157 17.3099 61.4847 18.507C62.2456 19.6881 63.2629 20.6218 64.5525 21.3002C65.8421 21.9785 67.2118 22.3217 68.6616 22.3217C69.767 22.3217 70.8243 22.1301 71.8176 21.7391C72.8028 21.372 73.6999 20.8293 74.5009 20.111C75.2939 19.3848 75.9107 18.5469 76.3512 17.6051C76.7838 16.6714 77.008 15.6419 77.008 14.5167C77.008 13.3914 76.7837 12.3859 76.3432 11.4282M71.3209 17.1024C70.576 17.8286 69.6789 18.1957 68.6456 18.1957C67.6123 18.1957 66.7392 17.8286 65.9863 17.1024C65.2253 16.3761 64.8489 15.5063 64.8489 14.4927C64.8489 13.8303 65.0251 13.2238 65.3775 12.6652C65.73 12.1065 66.1945 11.6676 66.7873 11.3324C67.372 11.0052 67.9968 10.8376 68.6536 10.8376C69.3104 10.8376 69.9512 11.0052 70.528 11.3324C71.1127 11.6596 71.5853 12.1065 71.9377 12.6652C72.2901 13.2238 72.4664 13.8303 72.4664 14.4927C72.4664 15.5063 72.0899 16.3682 71.329 17.1024" fill="#188E9A"/>
</g>
<defs>
<clipPath id="clip0_4_64">
<rect width="77" height="46" fill="white"/>
</clipPath>
</defs>
</svg>
