<svg width="34" height="43" viewBox="0 0 34 43" fill="none" xmlns="http://www.w3.org/2000/svg">
<g clip-path="url(#clip0_2_24)">
<path d="M24.43 0H3.69C1.65207 0 0 1.65207 0 3.69V24.43C0 26.4679 1.65207 28.12 3.69 28.12H24.43C26.4679 28.12 28.12 26.4679 28.12 24.43V3.69C28.12 1.65207 26.4679 0 24.43 0Z" fill="#10909D"/>
<path d="M29.8 8.09003H9.06C7.02206 8.09003 5.37 9.7421 5.37 11.78V32.52C5.37 34.558 7.02206 36.21 9.06 36.21H29.8C31.8379 36.21 33.49 34.558 33.49 32.52V11.78C33.49 9.7421 31.8379 8.09003 29.8 8.09003Z" fill="#E4E5E3"/>
<path d="M15.752 16.808H25.856V19.496H19.136V22.832H24.728V25.52H19.136V29.312H26.168V32H15.752V16.808Z" fill="#212020"/>
</g>
<defs>
<clipPath id="clip0_2_24">
<rect width="33.49" height="42.03" fill="white"/>
</clipPath>
</defs>
</svg>
