<svg width="11" height="10" viewBox="0 0 11 10" fill="none" xmlns="http://www.w3.org/2000/svg">
<g clip-path="url(#clip0_297_541)">
<path d="M1.87412 2.91036C1.86976 2.87069 1.83165 2.84119 1.787 2.84627C1.71621 2.8534 1.65959 2.86153 1.61603 2.86865C1.55722 2.87781 1.52346 2.88493 1.52128 2.88493C1.47881 2.89409 1.45268 2.93274 1.46139 2.97242C1.46901 3.00701 1.50168 3.02939 1.53762 3.02939C1.54306 3.02939 1.54851 3.02939 1.55504 3.02735C1.55504 3.02735 1.6487 3.00802 1.80442 2.99175C1.8066 2.99175 1.80878 2.98971 1.81205 2.98971C1.85125 2.98157 1.87848 2.948 1.87303 2.91036H1.87412Z" fill="#188E9A"/>
<path d="M8.97018 6.36409C8.93969 6.38851 8.9092 6.41292 8.87762 6.4353C8.84386 6.45972 8.83732 6.50651 8.86346 6.53805C8.87871 6.55636 8.90158 6.56654 8.92553 6.56654C8.94078 6.56654 8.95603 6.56145 8.97018 6.55331C8.97127 6.55331 8.97236 6.55229 8.97454 6.55128C9.0083 6.52686 9.04206 6.50041 9.07473 6.47396C9.17818 6.39054 9.27837 6.29695 9.3742 6.19421C9.40252 6.16369 9.39925 6.11791 9.36658 6.09146C9.33391 6.06501 9.2849 6.06806 9.25659 6.09858C9.19778 6.16165 9.1368 6.22066 9.07473 6.27661C9.03988 6.30713 9.00503 6.33663 8.97018 6.36511V6.36409Z" fill="#188E9A"/>
<path d="M4.72628 3.82819C4.74153 3.84243 4.76222 3.84955 4.78182 3.84955C4.80142 3.84955 4.82211 3.84243 4.83736 3.82819C4.86785 3.7997 4.86785 3.75392 4.83736 3.72442C4.78509 3.67458 4.72846 3.62778 4.67292 3.582C4.63916 3.55453 4.60431 3.52808 4.56838 3.50163C4.51828 3.464 4.46819 3.42636 4.41592 3.39177C4.37998 3.36837 4.33206 3.37651 4.30701 3.41008C4.28197 3.44365 4.29068 3.48841 4.32662 3.51181C4.41047 3.56674 4.49106 3.62778 4.56838 3.69085C4.60431 3.72035 4.63916 3.75087 4.67292 3.78139C4.69034 3.79665 4.70886 3.81191 4.72628 3.82717V3.82819Z" fill="#188E9A"/>
<path d="M5.32737 4.62875C5.34153 4.6552 5.36875 4.66945 5.39815 4.66945C5.41013 4.66945 5.42102 4.66741 5.433 4.66233C5.47221 4.64503 5.48745 4.60027 5.46894 4.56466C5.4134 4.45887 5.35133 4.35917 5.28708 4.26253C5.2555 4.21472 5.22391 4.1669 5.19016 4.12112C5.18798 4.11807 5.18471 4.11604 5.18253 4.114C5.1564 4.08755 5.11393 4.08247 5.08126 4.10281C5.04532 4.12621 5.03661 4.17199 5.06165 4.20454C5.10412 4.26049 5.14333 4.32051 5.18253 4.38053C5.21956 4.4375 5.25332 4.49651 5.28708 4.55754C5.30014 4.58094 5.31539 4.60434 5.32737 4.62875Z" fill="#188E9A"/>
<path d="M6.46436 6.37631C6.47525 6.38139 6.48613 6.38445 6.49811 6.38445C6.5188 6.38445 6.53841 6.37732 6.55365 6.36207C6.58415 6.33358 6.58306 6.28679 6.55256 6.2583C6.52316 6.23083 6.49376 6.20337 6.46436 6.17387C6.42951 6.13826 6.39466 6.10164 6.35981 6.064C6.30863 6.00805 6.25853 5.94904 6.20953 5.88699C6.18339 5.85444 6.13548 5.84731 6.09954 5.87173C6.06469 5.89614 6.05707 5.94192 6.0832 5.97448C6.17141 6.08638 6.26398 6.19014 6.35981 6.28373C6.38704 6.3112 6.41535 6.33765 6.44366 6.36308C6.4502 6.36919 6.45673 6.37224 6.46436 6.37631Z" fill="#188E9A"/>
<path d="M5.85443 5.58088C5.86314 5.58088 5.87077 5.57783 5.87948 5.57477C5.88384 5.57376 5.88928 5.57376 5.89364 5.57172C5.93175 5.55138 5.94482 5.50662 5.92304 5.47203C5.90779 5.44761 5.89473 5.42116 5.87948 5.39573C5.84354 5.33469 5.80869 5.27162 5.77494 5.20753C5.74444 5.14853 5.71395 5.09054 5.68455 5.0295C5.66712 4.99288 5.6203 4.9766 5.58109 4.99288C5.54189 5.00916 5.52338 5.0529 5.54189 5.08952C5.61485 5.24212 5.69326 5.38861 5.77494 5.52493C5.77929 5.53103 5.78256 5.53917 5.78691 5.54527C5.80107 5.56867 5.8283 5.58189 5.85552 5.58189L5.85443 5.58088Z" fill="#188E9A"/>
<path d="M2.86086 2.99993C2.86086 2.99993 2.86739 2.99993 2.87175 2.99993C2.91095 2.99993 2.94362 2.97348 2.94906 2.93685C2.95451 2.89718 2.92511 2.85954 2.88155 2.85445C2.81076 2.8453 2.73889 2.84021 2.66701 2.83411C2.63217 2.83106 2.59732 2.82902 2.56247 2.82699C2.48624 2.82292 2.41001 2.81885 2.33378 2.81885C2.29131 2.81885 2.25537 2.8514 2.25537 2.89108C2.25537 2.93177 2.29022 2.96432 2.33269 2.96432C2.41001 2.96432 2.48624 2.96839 2.56247 2.97246C2.59732 2.97449 2.63217 2.97755 2.66701 2.9806C2.73235 2.98568 2.7966 2.99077 2.86086 2.99891V2.99993Z" fill="#188E9A"/>
<path d="M9.59835 5.80061C9.61142 5.80875 9.62667 5.8118 9.64082 5.8118C9.64953 5.8118 9.65825 5.80875 9.66696 5.80569C9.6822 5.80061 9.69745 5.79247 9.70725 5.77823C9.75408 5.71007 9.80091 5.63784 9.84447 5.56561C9.86625 5.53001 9.85318 5.48626 9.81506 5.46592C9.77695 5.44557 9.72903 5.4588 9.70834 5.49339C9.69527 5.51475 9.68112 5.53509 9.66696 5.55646C9.63647 5.60427 9.60706 5.6531 9.57548 5.69888C9.55261 5.73245 9.56242 5.77823 9.59944 5.80061H9.59835Z" fill="#188E9A"/>
<path d="M3.25938 0.0215755C3.21255 -0.00487417 3.15375 -0.00690875 3.10583 0.016489L0.0838531 1.48648C0.031581 1.51191 0 1.56176 0 1.61669V9.73368C0 9.78455 0.028314 9.83236 0.0751411 9.85881C0.100188 9.87305 0.128502 9.88017 0.156816 9.88017C0.181863 9.88017 0.20691 9.87407 0.22869 9.86389L3.24958 8.39391C3.30185 8.36847 3.33343 8.31863 3.33343 8.26369V3.06939C3.34323 3.08363 3.35739 3.09482 3.37699 3.09991C3.54034 3.14263 3.69934 3.19757 3.84853 3.26064V8.38475C3.84853 8.43968 3.8812 8.48953 3.93238 8.51496L6.95327 9.98495C6.97614 9.99614 7.00119 10.0012 7.02515 10.0012C7.05346 10.0012 7.08177 9.99411 7.10682 9.97987C7.15365 9.95342 7.18196 9.9056 7.18196 9.85474V6.83032C7.25057 6.85677 7.31918 6.87915 7.38778 6.89645C7.39432 6.89848 7.40194 6.8995 7.40847 6.8995C7.44332 6.8995 7.4749 6.87814 7.48362 6.84558C7.49451 6.80693 7.47055 6.76624 7.42808 6.75606C7.34531 6.7347 7.26255 6.70723 7.18087 6.67264V1.73673C7.18087 1.6818 7.1482 1.63195 7.09702 1.60652L4.07831 0.137547C4.03039 0.114149 3.97159 0.115167 3.92476 0.142633C3.87793 0.169083 3.84962 0.216896 3.84962 0.267761V3.10296C3.71132 3.04803 3.56866 2.99818 3.42055 2.95952C3.38679 2.95037 3.35303 2.96461 3.33452 2.99004V0.146703C3.33452 0.095838 3.30621 0.0480251 3.25938 0.0215755ZM3.02089 8.17519L2.66696 8.34711L2.56242 8.39797L2.05386 8.64518L1.94931 8.69604L1.45817 8.93511L1.39392 8.96664L0.87229 9.22097L0.815662 9.24843L0.314721 9.49258V1.7052L1.36779 1.19248L1.41243 1.17112L3.02307 0.387801V8.17519H3.02089ZM4.16216 0.508859L4.56836 0.706214L4.6729 0.757079L5.18147 1.00428L5.28601 1.05515L5.77388 1.29218L5.87843 1.34304L6.86942 1.82524V6.56685C6.86288 6.57193 6.85635 6.57702 6.85199 6.58414C6.8313 6.61568 6.84002 6.65535 6.86942 6.67773V9.61262L6.46322 9.41527L6.35868 9.3644L5.87734 9.13043L5.77279 9.07956L5.28492 8.84151L5.18038 8.79065L4.67181 8.54345L4.56727 8.49258L4.16107 8.29523V0.508859H4.16216Z" fill="#188E9A"/>
<path d="M7.6654 1.61645V9.73344C7.6654 9.7843 7.69371 9.83211 7.74054 9.85856C7.76558 9.87281 7.7939 9.87993 7.82221 9.87993C7.84726 9.87993 7.87231 9.87382 7.89409 9.86365L9.62015 9.02438L9.65391 9.00811L10.1875 8.7487L10.2801 8.70393L10.915 8.39468C10.9672 8.36924 10.9988 8.3194 10.9988 8.26446V0.146458C10.9988 0.0955938 10.9705 0.047781 10.9237 0.0213313C10.8769 -0.00511831 10.8181 -0.00715289 10.7701 0.0162449L7.74925 1.48623C7.69698 1.51167 7.66431 1.56151 7.66431 1.61645H7.6654ZM10.6863 8.17494L10.2801 8.3723L10.1755 8.42316L9.66698 8.67036L9.56244 8.72123L9.07456 8.95826L8.97002 9.00912L8.48868 9.2431L8.38414 9.29397L7.97794 9.49132V6.94198C8.11406 6.92977 8.25019 6.90129 8.38414 6.85755C8.41898 6.84636 8.45383 6.83415 8.48868 6.81991C8.49086 6.81991 8.49304 6.81889 8.49521 6.81787C8.53442 6.80159 8.55402 6.75887 8.5366 6.72225C8.52788 6.7019 8.50937 6.68868 8.48868 6.68257C8.47126 6.67749 8.45165 6.67647 8.43314 6.68359C8.41681 6.68969 8.40047 6.69478 8.38414 6.70088C8.25019 6.74971 8.11406 6.78125 7.97794 6.79447V1.70495L8.38414 1.5076L8.46581 1.46792L8.96893 1.22276L9.07347 1.17189L9.56135 0.934861L9.66589 0.883996L10.1745 0.636794L10.279 0.585929L10.6852 0.388574V8.17596L10.6863 8.17494Z" fill="#188E9A"/>
</g>
<defs>
<clipPath id="clip0_297_541">
<rect width="11" height="10" fill="white"/>
</clipPath>
</defs>
</svg>
