<svg width="30" height="30" viewBox="0 0 30 30" fill="none" xmlns="http://www.w3.org/2000/svg">
<g clip-path="url(#clip0_186_375)">
<path d="M22.5 17.9862V21.3287C22.5 22.0046 23.0597 22.5517 23.7407 22.5517H29.9953V28.2161C29.9953 29.2 29.1884 29.9954 28.1903 29.9954H1.80504C0.806903 29.9954 0 29.2 0 28.2161V11.0943C0 10.1103 0.806903 9.31494 1.80504 9.31494H28.1903C29.1884 9.31494 29.9953 10.1103 29.9953 11.0943V16.7586H23.7407C23.055 16.7586 22.5 17.3103 22.5 17.9816V17.9862Z" fill="#CEF8FF"/>
<path d="M23.7453 17.3426C23.3862 17.3426 23.0923 17.6322 23.0923 17.9862V21.3288C23.0923 21.6828 23.3862 21.9724 23.7453 21.9724H30V17.338H23.7453V17.3426ZM25.681 20.6299C25.1353 20.6299 24.6968 20.1931 24.6968 19.6598C24.6968 19.1265 25.1399 18.6897 25.681 18.6897C26.222 18.6897 26.6651 19.1265 26.6651 19.6598C26.6651 20.1931 26.222 20.6299 25.681 20.6299Z" fill="#BABE31"/>
<path d="M2.17352 8.49194L23.9646 3.16321C24.7155 2.9793 25.4431 3.54022 25.4431 4.30344V8.49654H2.17352V8.49194Z" fill="#BABE31"/>
<path d="M22.4207 2.67589L5.75092 6.75405L20.5224 0.0965763C21.2033 -0.202274 21.9823 0.211519 22.1129 0.933358L22.4254 2.67589H22.4207Z" fill="#BABE31"/>
</g>
<defs>
<clipPath id="clip0_186_375">
<rect width="30" height="30" fill="white"/>
</clipPath>
</defs>
</svg>
