<svg width="20" height="14" viewBox="0 0 20 14" fill="none" xmlns="http://www.w3.org/2000/svg">
<g clip-path="url(#clip0_4_204)">
<path d="M15.4438 14H3.85164C1.72874 14 0 12.3007 0 10.214C0 8.37741 1.36561 6.80932 3.17194 6.49204C3.35816 5.3785 4.34513 4.52429 5.53073 4.52429C5.62694 4.52429 5.72005 4.53039 5.81316 4.53954C6.14215 3.70058 6.71322 2.95619 7.45189 2.4162C8.28988 1.80605 9.28616 1.48267 10.3321 1.48267C11.2446 1.48267 12.1353 1.73588 12.905 2.2118C13.9634 2.86772 14.7145 3.88973 15.0186 5.06733C15.1614 5.05512 15.3042 5.04597 15.4438 5.04597C17.9547 5.04597 20 7.05338 20 9.52451C20 11.9956 17.9578 14.003 15.4438 14.003V14ZM4.04407 6.86423C4.04407 6.86423 4.04407 6.87948 4.04407 6.88864C4.04407 7.1205 3.86096 7.31269 3.62508 7.331C2.09808 7.44388 0.900062 8.713 0.900062 10.217C0.900062 11.8156 2.22222 13.1153 3.84854 13.1153H15.4407C17.455 13.1153 19.0937 11.5045 19.0937 9.52451C19.0937 7.54455 17.455 5.93374 15.4407 5.93374C15.2142 5.93374 14.9783 5.9551 14.7424 6.00086C14.6214 6.02222 14.4972 5.99781 14.3979 5.92764C14.2986 5.85748 14.2303 5.75375 14.2117 5.63477C14.0348 4.53344 13.3799 3.55719 12.4178 2.96229C11.7939 2.57484 11.0708 2.37044 10.329 2.37044C9.47858 2.37044 8.66853 2.63281 7.98883 3.13008C7.29361 3.63651 6.7815 4.3626 6.54562 5.17715C6.51148 5.29308 6.43389 5.39071 6.32526 5.44562C6.21664 5.50359 6.09249 5.51274 5.97455 5.47918C5.82868 5.43342 5.6797 5.41206 5.52762 5.41206C4.71136 5.41206 4.04718 6.06188 4.04097 6.86423H4.04407Z" fill="#188E9A"/>
<path d="M13.8206 6.74832L10.118 12.2916C10.0186 12.4411 9.79517 12.4411 9.69585 12.2916L5.99318 6.74832C5.88456 6.58358 6.0056 6.36393 6.20423 6.36393L7.91435 6.35782C8.16264 6.35782 8.36128 6.15952 8.36128 5.91546V5.17412C8.36128 5.17412 8.61888 2.54131 7.2812 2.16606C7.275 2.16606 7.26879 2.16301 7.25948 2.16301C7.23154 2.15386 7.20051 2.14776 7.16947 2.14166C7.13844 2.13555 7.1074 2.12945 7.07326 2.12945C7.06705 2.12945 7.05774 2.12945 7.04843 2.12945C7.01739 2.12945 6.98325 2.1264 6.94601 2.1264C6.88083 2.1264 6.80945 2.12945 6.73496 2.13861C5.81938 2.25759 5.36935 3.45654 5.29486 4.53956C4.93173 4.57312 4.59343 4.686 4.29858 4.86295C4.29858 4.77752 4.29858 4.69515 4.30169 4.61278C4.30169 4.54872 4.30479 4.4877 4.311 4.42058C4.311 4.35957 4.3141 4.3016 4.32341 4.24364C4.32652 4.16737 4.33583 4.09415 4.34204 4.02398C4.34824 3.95382 4.35755 3.8806 4.36997 3.81348C4.37307 3.76772 4.38238 3.71891 4.39169 3.67314C4.401 3.60298 4.41342 3.53586 4.42583 3.46569C4.43825 3.39857 4.45377 3.33146 4.46618 3.26739C4.50653 3.08435 4.55308 2.9074 4.60895 2.73961C4.63378 2.66334 4.65861 2.59012 4.68654 2.5169C4.71447 2.44673 4.7393 2.38267 4.76724 2.31555C4.82931 2.16911 4.89449 2.02573 4.96898 1.89454C5.00312 1.83353 5.03726 1.77556 5.0714 1.72065C5.10554 1.66574 5.14278 1.60472 5.18002 1.54981C5.18002 1.54981 5.18002 1.54981 5.18313 1.54676C5.22037 1.48879 5.26072 1.43388 5.30417 1.37896C5.33521 1.3332 5.36935 1.29354 5.40659 1.25083C5.43452 1.21727 5.45935 1.18676 5.49039 1.15626C5.4966 1.14405 5.50591 1.1349 5.51832 1.12575C5.54626 1.09524 5.57419 1.06473 5.60523 1.03423C5.82869 0.802367 6.07698 0.607117 6.34079 0.457629C6.37804 0.436274 6.41528 0.414918 6.45253 0.396614C6.49598 0.375258 6.53632 0.350852 6.57978 0.332548C6.61702 0.314243 6.65116 0.298989 6.69151 0.283735C6.73496 0.26238 6.77841 0.247126 6.82186 0.228821C6.97394 0.170856 7.12602 0.128146 7.28431 0.0915364C7.58847 0.0244194 7.90194 1.31764e-05 8.22161 0.0213686C10.3414 0.14645 11.4494 1.55896 11.4494 5.0643V5.93072C11.4494 6.17478 11.6512 6.37308 11.8995 6.37308L13.6096 6.37918C13.8113 6.37918 13.9292 6.59884 13.8206 6.76358V6.74832Z" fill="#188E9A"/>
</g>
<defs>
<clipPath id="clip0_4_204">
<rect width="20" height="14" fill="white"/>
</clipPath>
</defs>
</svg>
