<svg width="43" height="42" viewBox="0 0 43 42" fill="none" xmlns="http://www.w3.org/2000/svg">
<g clip-path="url(#clip0_186_128)">
<path d="M33.9542 12.8218L33.9305 12.2967H29.7642L27.2977 15.064C24.8966 16.4979 25.1878 23.5136 25.2294 24.3161L25.2651 24.9651L25.901 24.8294C29.3957 24.0683 31.8978 21.7434 33.14 18.091C34.0612 15.3827 33.9602 12.928 33.9542 12.8277V12.8218ZM26.1447 23.5608C26.0793 20.7286 26.5964 16.6631 27.9039 15.9845L27.9931 15.9373L30.2575 13.4001H32.8428C32.7893 15.3119 32.0048 21.8497 26.1447 23.5608Z" fill="#BABE31"/>
<path d="M15.7082 15.0641L13.2418 12.3026H9.07548L9.05171 12.8278C9.05171 12.9281 8.95067 15.3827 9.86594 18.091C11.1081 21.7376 13.6102 24.0683 17.1049 24.8294L17.7409 24.9652L17.7765 24.3161C17.8181 23.5136 18.1093 16.4979 15.7082 15.0641ZM16.8612 23.5608C14.0798 22.7584 11.9758 20.823 10.9298 17.7665C10.3117 15.9609 10.1809 14.2321 10.1631 13.4001H12.7485L15.0129 15.9373L15.102 15.9845C16.4095 16.6631 16.9326 20.7286 16.8672 23.5608H16.8612Z" fill="#BABE31"/>
<path d="M10.9298 17.7547C10.3117 15.9491 10.1809 14.2262 10.1631 13.3883H9.72329C9.72329 13.3883 9.6698 16.2088 10.9238 19.0882C12.1422 21.8851 15.1496 23.7909 17.6695 24.3279L16.8553 23.5608C14.0738 22.7584 11.9758 20.8112 10.9298 17.7547Z" fill="#A7A729"/>
<path d="M32.0702 17.7547C32.6883 15.9491 32.8191 14.2262 32.8369 13.3883H33.2767C33.2767 13.3883 33.3302 16.2088 32.0762 19.0882C30.8578 21.8851 27.8504 23.7909 25.3305 24.3279L26.1447 23.5608C28.9262 22.7584 31.0242 20.8112 32.0702 17.7547Z" fill="#A7A729"/>
<path d="M28.0525 12.3439C28.0525 12.3439 25.2889 11.4235 21.503 11.4235C17.7171 11.4235 14.9534 12.3439 14.9534 12.3439C14.6444 21.6963 17.8835 27.3372 21.503 27.349C25.1225 27.3372 28.3616 21.7022 28.0525 12.3439Z" fill="#BABE31"/>
<path d="M26.846 35.8694L26.2042 32.093L21.497 31.3909L16.7899 32.093L16.148 35.8694H16.1837C16.1599 35.9284 16.148 35.9874 16.148 36.0464C16.148 36.8902 18.5432 37.5746 21.4911 37.5746C24.439 37.5746 26.8342 36.8902 26.8342 36.0464C26.8342 35.9874 26.8223 35.9284 26.7985 35.8694H26.8342H26.846Z" fill="#8F3B0E"/>
<path d="M17.0098 12.5623C15.9757 12.757 15.3516 12.9635 15.3516 12.9635C15.2981 14.6392 15.3873 16.1616 15.5893 17.5187L17.2594 16.9464C17.0573 15.6364 16.9623 14.1731 17.0039 12.5623H17.0098Z" fill="#D5D53A"/>
<path d="M17.5031 18.8522L16.1302 19.1178C16.7067 23.9385 18.6977 26.4226 20.4748 26.7707C20.8967 26.8534 22.1032 27.1012 22.5668 26.6704C22.5312 26.6704 17.7171 25.8975 17.5031 18.8522Z" fill="#D5D53A"/>
<path d="M26.846 35.8516L26.2041 32.0694L23.6069 31.4852L23.8922 37.3917C25.6395 37.1438 26.8401 36.6246 26.8401 36.0286C26.8401 35.9696 26.8282 35.9106 26.8044 35.8516H26.8401H26.846Z" fill="#6C2C0B"/>
<path opacity="0.4" d="M18.359 31.7921L17.723 37.1261C18.1925 37.25 18.7393 37.3504 19.3396 37.4212L20.0409 31.5383L18.359 31.7921Z" fill="#A5623E"/>
<path d="M26.2101 32.152C26.2101 32.5946 24.1002 32.9545 21.503 32.9545C18.9058 32.9545 16.7959 32.5946 16.7959 32.152C16.7959 31.7095 18.9058 31.3495 21.503 31.3495C24.1002 31.3495 26.2101 31.7095 26.2101 32.152Z" fill="#6C2C0B"/>
<path d="M25.0511 31.8629L24.6292 30.075L21.503 29.7446L18.3768 30.075L17.9786 31.8629C17.9786 31.8629 17.9548 31.916 17.9548 31.9455C17.9548 32.3467 19.5417 32.6653 21.503 32.6653C23.4643 32.6653 25.0511 32.3408 25.0511 31.9455C25.0511 31.916 25.0393 31.8924 25.0274 31.8629H25.0511Z" fill="#ACAC2B"/>
<path d="M24.6232 30.075C24.6232 30.429 23.2266 30.7123 21.497 30.7123C19.7675 30.7123 18.3708 30.429 18.3708 30.075C18.3708 29.721 19.7675 29.4377 21.497 29.4377C23.2266 29.4377 24.6232 29.721 24.6232 30.075Z" fill="#BABE31"/>
<path d="M22.7154 25.3074H20.2846C20.2846 25.3074 21.2771 28.3284 19.6962 30.2225C19.6962 30.2225 20.4153 30.4467 21.5149 30.4467C22.9294 30.4467 23.4048 30.2107 23.4048 30.2107C21.8239 28.3166 22.7214 25.3074 22.7214 25.3074H22.7154Z" fill="#BABE31"/>
<path d="M19.1138 30.488L18.6324 32.3762C18.9236 32.4706 19.0365 32.4942 19.613 32.565L20.0053 30.6415L19.1138 30.4939V30.488Z" fill="#D5D53A"/>
<path d="M24.7956 17.7134C24.6232 17.5777 24.4509 17.4361 24.3914 17.265C24.332 17.088 24.3914 16.8637 24.4509 16.6454C24.5103 16.4212 24.5697 16.1911 24.4806 16.0672C24.3914 15.9433 24.1477 15.9256 23.91 15.9138C23.6842 15.902 23.4524 15.8901 23.3038 15.778C23.1552 15.6718 23.072 15.4594 22.9947 15.2529C22.9115 15.0346 22.8224 14.8045 22.6679 14.7572C22.5312 14.7159 22.3231 14.8399 22.133 14.9638C21.9428 15.0877 21.7407 15.2116 21.5505 15.2116C21.3603 15.2116 21.1583 15.0877 20.9681 14.9638C20.7719 14.8399 20.5699 14.7159 20.4332 14.7572C20.2846 14.8045 20.1954 15.0346 20.1063 15.2529C20.029 15.4594 19.9458 15.6718 19.7972 15.778C19.6486 15.8842 19.4169 15.902 19.191 15.9138C18.9533 15.9256 18.7096 15.9433 18.6204 16.0672C18.5313 16.1911 18.5907 16.4212 18.6502 16.6454C18.7096 16.8637 18.7631 17.088 18.7096 17.265C18.6561 17.4361 18.4778 17.5777 18.3055 17.7134C18.1212 17.8609 17.9251 18.0202 17.9251 18.1796C17.9251 18.3389 18.1153 18.4982 18.3055 18.6457C18.4778 18.7814 18.6502 18.923 18.7096 19.0941C18.769 19.2712 18.7096 19.4954 18.6502 19.7137C18.5907 19.9379 18.5313 20.168 18.6204 20.2919C18.7096 20.4159 18.9533 20.4277 19.191 20.4454C19.4169 20.4572 19.6486 20.469 19.7972 20.5811C19.9458 20.6873 20.029 20.8997 20.1063 21.1062C20.1895 21.3245 20.2786 21.5547 20.4332 21.6019C20.5699 21.6432 20.7779 21.5193 20.9681 21.3953C21.1583 21.2714 21.3603 21.1475 21.5505 21.1475C21.7407 21.1475 21.9428 21.2714 22.133 21.3953C22.3291 21.5193 22.5312 21.6432 22.6679 21.6019C22.8164 21.5547 22.9056 21.3245 22.9947 21.1062C23.0779 20.8997 23.1552 20.6873 23.3038 20.5811C23.4524 20.4749 23.6842 20.4572 23.91 20.4454C24.1477 20.4336 24.3914 20.4159 24.4806 20.2919C24.5697 20.168 24.5103 19.9379 24.4509 19.7137C24.3914 19.4954 24.332 19.2712 24.3914 19.0941C24.4449 18.923 24.6232 18.7814 24.7956 18.6457C24.9798 18.4982 25.1759 18.3389 25.1759 18.1796C25.1759 18.0202 24.9858 17.8609 24.7956 17.7134Z" fill="#BABE31"/>
<path d="M24.8907 17.5895C24.7361 17.4656 24.5816 17.3417 24.54 17.2118C24.4984 17.0761 24.5519 16.8755 24.5994 16.6808C24.6648 16.4212 24.7361 16.1497 24.5994 15.9668C24.4627 15.7839 24.1834 15.7662 23.91 15.7485C23.7079 15.7367 23.4999 15.7249 23.3929 15.6423C23.286 15.5597 23.2087 15.3709 23.1374 15.188C23.0363 14.9342 22.9353 14.6687 22.7154 14.5979C22.6797 14.5861 22.6441 14.5802 22.6025 14.5802C22.4242 14.5802 22.2281 14.7041 22.0438 14.8221C21.8715 14.9342 21.6932 15.0463 21.5446 15.0463C21.396 15.0463 21.2177 14.9342 21.0453 14.8221C20.8611 14.7041 20.665 14.5802 20.4867 14.5802C20.4451 14.5802 20.4094 14.5802 20.3737 14.5979C20.1538 14.6687 20.0468 14.9342 19.9518 15.188C19.8804 15.3709 19.8032 15.5656 19.6962 15.6423C19.5833 15.7249 19.3753 15.7367 19.1791 15.7485C18.9057 15.7662 18.6264 15.778 18.4897 15.9668C18.353 16.1497 18.4243 16.4212 18.4897 16.6808C18.5432 16.8755 18.5967 17.0761 18.5491 17.2118C18.5075 17.3358 18.353 17.4656 18.1985 17.5895C17.9845 17.7606 17.7587 17.9435 17.7587 18.1795C17.7587 18.4155 17.9786 18.5985 18.1985 18.7696C18.353 18.8935 18.5075 19.0174 18.5491 19.1472C18.5907 19.2829 18.5372 19.4835 18.4897 19.6783C18.4184 19.9379 18.353 20.2093 18.4897 20.3922C18.6264 20.5751 18.9057 20.5928 19.1791 20.6105C19.3812 20.6223 19.5892 20.6341 19.6962 20.7168C19.8091 20.7935 19.8804 20.9882 19.9518 21.1711C20.0528 21.4248 20.1538 21.6903 20.3797 21.7612C20.4153 21.773 20.451 21.7789 20.4926 21.7789C20.6709 21.7789 20.867 21.6549 21.0513 21.5369C21.2236 21.4248 21.4019 21.3127 21.5505 21.3127C21.6991 21.3127 21.8715 21.4248 22.0498 21.5369C22.234 21.6549 22.4301 21.7789 22.6084 21.7789C22.65 21.7789 22.6857 21.773 22.7213 21.7612C22.9472 21.6903 23.0482 21.4248 23.1493 21.1711C23.2206 20.9882 23.2979 20.7935 23.4048 20.7168C23.5178 20.6341 23.7258 20.6223 23.9219 20.6105C24.1953 20.5928 24.4746 20.581 24.6113 20.3922C24.748 20.2093 24.6767 19.9379 24.6113 19.6783C24.5578 19.4835 24.5043 19.2829 24.5519 19.1472C24.5935 19.0233 24.748 18.8935 24.9026 18.7696C25.1165 18.5985 25.3424 18.4155 25.3424 18.1795C25.3424 17.9435 25.1225 17.7606 24.9026 17.5895H24.8907ZM24.7956 18.6457C24.6232 18.7814 24.4509 18.923 24.3914 19.0941C24.332 19.2711 24.3914 19.4953 24.4509 19.7137C24.5103 19.9379 24.5697 20.168 24.4806 20.2919C24.3914 20.4158 24.1477 20.4276 23.91 20.4453C23.6842 20.4571 23.4524 20.4689 23.3038 20.581C23.1552 20.6873 23.072 20.8997 22.9947 21.1062C22.9115 21.3245 22.8224 21.5546 22.6679 21.6018C22.5312 21.6431 22.3291 21.5192 22.133 21.3953C21.9428 21.2714 21.7407 21.1475 21.5505 21.1475C21.3603 21.1475 21.1583 21.2714 20.9681 21.3953C20.7719 21.5192 20.5699 21.6431 20.4332 21.6018C20.2846 21.5546 20.1954 21.3245 20.1063 21.1062C20.029 20.8997 19.9458 20.6873 19.7972 20.581C19.6486 20.4748 19.4169 20.4571 19.191 20.4453C18.9533 20.4335 18.7096 20.4158 18.6205 20.2919C18.5313 20.168 18.5907 19.9379 18.6502 19.7137C18.7096 19.4953 18.7631 19.2711 18.7096 19.0941C18.6561 18.923 18.4778 18.7814 18.3055 18.6457C18.1212 18.4923 17.9251 18.3388 17.9251 18.1795C17.9251 18.0202 18.1153 17.8609 18.3055 17.7134C18.4778 17.5777 18.6502 17.4361 18.7096 17.2649C18.769 17.0879 18.7096 16.8637 18.6502 16.6454C18.5907 16.4212 18.5313 16.191 18.6205 16.0671C18.7096 15.9432 18.9533 15.9255 19.191 15.9137C19.4169 15.9019 19.6486 15.8901 19.7972 15.778C19.9458 15.6718 20.029 15.4594 20.1063 15.2529C20.1895 15.0345 20.2786 14.8044 20.4332 14.7572C20.5699 14.7159 20.7779 14.8398 20.9681 14.9637C21.1583 15.0876 21.3603 15.2116 21.5505 15.2116C21.7407 15.2116 21.9428 15.0876 22.133 14.9637C22.3291 14.8398 22.5312 14.7159 22.6679 14.7572C22.8164 14.8044 22.9056 15.0345 22.9947 15.2529C23.0779 15.4594 23.1552 15.6718 23.3038 15.778C23.4524 15.8842 23.6842 15.9019 23.91 15.9137C24.1477 15.9255 24.3914 15.9432 24.4806 16.0671C24.5697 16.191 24.5103 16.4212 24.4509 16.6454C24.3914 16.8637 24.332 17.0879 24.3914 17.2649C24.4449 17.4361 24.6232 17.5777 24.7956 17.7134C24.9798 17.8668 25.1759 18.0202 25.1759 18.1795C25.1759 18.3388 24.9858 18.4982 24.7956 18.6457Z" fill="#D5D53A"/>
<path d="M24.2488 18.1796C24.2488 19.6606 23.0423 20.8584 21.5505 20.8584C20.0587 20.8584 18.8522 19.6606 18.8522 18.1796C18.8522 16.6985 20.0587 15.5007 21.5505 15.5007C23.0423 15.5007 24.2488 16.6985 24.2488 18.1796Z" fill="#F1F1EA"/>
<path d="M22.4123 16.256C22.8818 16.256 23.3216 16.374 23.708 16.5864C23.2147 15.9314 22.4301 15.5066 21.5446 15.5066C20.0528 15.5066 18.8463 16.7044 18.8463 18.1854C18.8463 19.1944 19.4109 20.0795 20.2489 20.5338C19.9161 20.0854 19.714 19.5367 19.714 18.9407C19.714 17.4597 20.9205 16.2619 22.4123 16.2619V16.256Z" fill="white"/>
<path d="M9.81838 29.6738C9.81838 29.6738 9.81838 29.662 9.81243 29.662C9.81243 29.662 9.80055 29.662 9.7946 29.6561C9.7946 29.6561 9.7946 29.6443 9.78866 29.6443C9.78866 29.6443 9.78866 29.6384 9.78272 29.6325C9.69357 29.544 9.36668 29.6974 9.05169 29.9806L5.54512 33.1374C5.23013 33.4206 5.05183 33.7216 5.14098 33.8101C5.14098 33.8101 5.14098 33.8101 5.14692 33.8101C5.14692 33.8101 5.15881 33.8101 5.16475 33.816C5.16475 33.816 5.16475 33.8278 5.17069 33.8337C5.17069 33.8337 5.18258 33.8337 5.18852 33.8396C5.18852 33.8455 5.18852 33.8514 5.20041 33.8573C5.28956 33.9458 5.61644 33.7924 5.93144 33.5092L9.438 30.3524C9.753 30.0691 9.9313 29.7682 9.84215 29.6797C9.84215 29.6797 9.82432 29.6738 9.81838 29.6679V29.6738Z" fill="#BABE31"/>
<path d="M6.31182 22.2981C6.31182 22.2981 6.31182 22.2804 6.29993 22.2745V22.2627C6.29993 22.2627 6.29993 22.2509 6.29399 22.245C6.29399 22.245 6.29399 22.2332 6.29399 22.2273C6.29399 22.2273 6.29399 22.2214 6.29399 22.2155C6.27021 22.0975 5.90767 22.0562 5.47975 22.1329L0.725085 22.9708C0.303108 23.0475 -0.0237751 23.2068 -1.74623e-06 23.3248C-1.74623e-06 23.3248 -1.74623e-06 23.3248 -1.74623e-06 23.3307C-1.74623e-06 23.3307 -1.74623e-06 23.3307 -1.74623e-06 23.3366C-1.74623e-06 23.3366 -1.74611e-06 23.3484 0.00594158 23.3543C0.00594158 23.3543 0.00594158 23.3661 0.00594158 23.372C0.00594158 23.372 0.00594158 23.3838 0.0118849 23.3897C0.0118849 23.3956 0.0118849 23.4015 0.0118849 23.4133C0.0356582 23.5372 0.398201 23.5726 0.826121 23.4959L5.58079 22.658C6.00871 22.5813 6.32965 22.422 6.31182 22.304V22.2981Z" fill="#BABE31"/>
<path d="M2.31196 12.4501L6.78134 14.2026C7.18549 14.3619 7.54803 14.3973 7.59558 14.2793C7.59558 14.2734 7.59558 14.2616 7.59558 14.2557C7.59558 14.2557 7.60152 14.2498 7.60152 14.2439C7.60152 14.2439 7.60152 14.2321 7.60152 14.2262C7.60152 14.2262 7.60747 14.2203 7.61341 14.2144C7.61341 14.2144 7.61341 14.2085 7.61935 14.2026C7.6669 14.0905 7.38756 13.8722 6.98342 13.7128L2.51403 11.9604C2.11583 11.807 1.74734 11.7716 1.69979 11.8837C1.69979 11.8837 1.69979 11.8837 1.69979 11.8896C1.69979 11.8896 1.69979 11.9014 1.69979 11.9073C1.69979 11.9073 1.69385 11.9132 1.69385 11.9191C1.69385 11.9191 1.69385 11.9309 1.69385 11.9368C1.69385 11.9368 1.68196 11.9486 1.68196 11.9545C1.63442 12.0666 1.91375 12.2849 2.3179 12.4442L2.31196 12.4501Z" fill="#BABE31"/>
<path d="M10.3652 3.65831C10.1215 3.32198 9.83622 3.10366 9.72924 3.17447C9.72924 3.17447 9.72924 3.18037 9.7233 3.18627C9.71736 3.18627 9.71141 3.18627 9.69953 3.19807C9.69953 3.19807 9.69953 3.20397 9.68764 3.20987C9.67575 3.20987 9.66981 3.20987 9.66387 3.22167C9.55689 3.29248 9.66387 3.62291 9.91349 3.95924L12.6534 7.73558C12.897 8.07191 13.1823 8.29023 13.2893 8.21943C13.2893 8.21943 13.2952 8.20763 13.3012 8.20173C13.3071 8.20173 13.3131 8.20173 13.319 8.19583C13.319 8.19583 13.319 8.18992 13.325 8.18402C13.3309 8.18402 13.3368 8.18402 13.3428 8.17812C13.3428 8.17812 13.3487 8.17812 13.3547 8.17812C13.4617 8.10732 13.3547 7.77689 13.1051 7.44056L10.3652 3.66421V3.65831Z" fill="#BABE31"/>
<path d="M21.5981 0C21.5981 0 21.5862 0 21.5743 0C21.5684 0 21.5624 0 21.5565 0C21.5565 0 21.5446 0 21.5386 0C21.5386 0 21.5267 0 21.5208 0C21.5208 0 21.5208 0 21.5149 0C21.5149 0 21.5149 0 21.5089 0C21.3782 0 21.2652 0.33043 21.2593 0.737567L21.1642 5.32228C21.1583 5.72942 21.2534 6.06575 21.3841 6.06575C21.3841 6.06575 21.3901 6.06575 21.396 6.06575C21.396 6.06575 21.4079 6.06575 21.4138 6.06575C21.4138 6.06575 21.4257 6.06575 21.4317 6.06575C21.4317 6.06575 21.4435 6.06575 21.4495 6.06575C21.4554 6.06575 21.4673 6.06575 21.4733 6.06575C21.604 6.06575 21.7169 5.74122 21.7229 5.32818L21.818 0.749368C21.8239 0.33633 21.7288 0.00590053 21.5981 0Z" fill="#BABE31"/>
<path d="M37.4608 33.1315L33.9543 29.9747C33.6393 29.6915 33.3124 29.5381 33.2232 29.6266C33.2232 29.6266 33.2232 29.6325 33.2173 29.6384C33.2173 29.6384 33.2173 29.6443 33.2114 29.6502C33.2114 29.6502 33.1995 29.6502 33.1935 29.6561C33.1935 29.6561 33.1935 29.6679 33.1876 29.6679C33.1816 29.6679 33.1697 29.6679 33.1638 29.6797C33.0747 29.7682 33.253 30.0691 33.5679 30.3523L37.0745 33.5091C37.3895 33.7924 37.7164 33.9458 37.8055 33.8573C37.8055 33.8573 37.8115 33.8455 37.8174 33.8396C37.8174 33.8396 37.8293 33.8396 37.8353 33.8337C37.8353 33.8337 37.8353 33.8219 37.8412 33.816C37.8412 33.816 37.8531 33.816 37.859 33.8101C37.859 33.8101 37.859 33.8101 37.865 33.8101C37.9541 33.7216 37.7699 33.4206 37.4608 33.1374V33.1315Z" fill="#BABE31"/>
<path d="M42.2749 22.9708L37.5202 22.1329C37.0983 22.0562 36.7298 22.0975 36.706 22.2155C36.706 22.2155 36.706 22.2214 36.706 22.2273C36.706 22.2273 36.706 22.2391 36.706 22.245C36.706 22.245 36.706 22.2568 36.7001 22.2627V22.2745C36.7001 22.2804 36.6941 22.2922 36.6882 22.2981C36.6644 22.422 36.9913 22.5754 37.4192 22.6521L42.1739 23.49C42.6018 23.5667 42.9643 23.5254 42.9881 23.4074C42.9881 23.4015 42.9881 23.3956 42.9881 23.3838C42.9881 23.3838 42.9881 23.372 42.994 23.3661C42.994 23.3661 42.994 23.3543 42.994 23.3484C42.994 23.3484 42.994 23.3366 43 23.3307C43 23.3307 43 23.3307 43 23.3248C43 23.3248 43 23.3248 43 23.3189C43.0238 23.195 42.6969 23.0416 42.2749 22.9649V22.9708Z" fill="#BABE31"/>
<path d="M35.3806 14.2144C35.3806 14.2144 35.3806 14.2262 35.3925 14.2262C35.3925 14.2262 35.3925 14.238 35.3925 14.2439C35.3925 14.2439 35.3925 14.2498 35.3985 14.2557C35.3985 14.2616 35.3985 14.2734 35.3985 14.2793C35.452 14.3914 35.8145 14.356 36.2127 14.2026L40.6821 12.4501C41.0803 12.2908 41.3656 12.0725 41.318 11.9604C41.318 11.9545 41.3121 11.9486 41.3061 11.9427C41.3061 11.9368 41.3061 11.9309 41.3061 11.925C41.3061 11.925 41.3061 11.9132 41.3002 11.9132C41.3002 11.9073 41.3002 11.9014 41.3002 11.8955C41.3002 11.8955 41.3002 11.8955 41.3002 11.8896C41.2526 11.7775 40.8842 11.8129 40.486 11.9663L36.0166 13.7188C35.6184 13.8781 35.3331 14.0964 35.3806 14.2085C35.3806 14.2085 35.3806 14.2144 35.3866 14.2203L35.3806 14.2144Z" fill="#BABE31"/>
<path d="M33.348 3.21582C33.348 3.21582 33.3302 3.20991 33.3242 3.20401C33.3242 3.20401 33.3242 3.19221 33.3124 3.19221C33.3064 3.19221 33.3005 3.18631 33.2886 3.18041C33.2886 3.18041 33.2886 3.17451 33.2826 3.16861C33.1757 3.0978 32.8904 3.31612 32.6467 3.65246L29.9068 7.4288C29.6632 7.76513 29.5502 8.09556 29.6572 8.16636C29.6572 8.16636 29.6632 8.16636 29.6691 8.16636C29.6691 8.16636 29.681 8.16636 29.6869 8.17226C29.6869 8.17226 29.6869 8.17816 29.6929 8.18407C29.6929 8.18407 29.7048 8.18997 29.7107 8.18997C29.7107 8.18997 29.7166 8.20177 29.7226 8.20767C29.8296 8.27847 30.1148 8.06015 30.3585 7.72382L33.0984 3.94748C33.3421 3.61115 33.455 3.28072 33.348 3.20992V3.21582Z" fill="#BABE31"/>
<path d="M13.9133 34.4886L13.1883 35.4386C13.1883 35.4386 15.2565 38.9022 15.3516 39.1206V41.7345H18.1628L17.7052 39.4687C17.7052 39.4687 18.3887 37.2265 17.2951 36.5007C15.8628 35.5448 13.9133 34.4886 13.9133 34.4886Z" fill="#FFCB8F"/>
<path d="M18.8107 42H14.9059V40.277L18.6977 40.3832L18.8107 42Z" fill="#BABE31"/>
<path d="M14.6384 35.0846C14.4839 35.2675 14.1868 35.2734 13.9669 35.0905C13.7529 34.9135 13.9134 34.4886 13.9134 34.4886L15.3338 32.6772C15.4883 32.4943 15.7855 32.4943 16.0054 32.6713C16.2194 32.8483 16.2729 33.1433 16.1183 33.3262L14.6384 35.0905V35.0846Z" fill="#FFCB8F"/>
<path d="M15.8747 33.5032C15.6488 33.5917 15.3873 33.4442 15.2863 33.1846C15.1852 32.925 15.2863 32.6418 15.5062 32.5591L17.6636 31.7331C17.8895 31.6505 18.151 31.7921 18.252 32.0517C18.353 32.3113 18.252 32.5946 18.0321 32.6772L15.8747 33.5032Z" fill="#FFCB8F"/>
<path d="M16.3442 32.9722L18.7334 32.0753C18.8166 32.0458 18.8879 31.9868 18.9355 31.916C18.9355 31.916 16.1421 32.8306 16.0945 32.8955C15.6845 33.4207 14.4958 35.0138 14.4958 35.0138C14.579 34.9902 14.6503 34.943 14.7097 34.8781L16.3382 32.9781L16.3442 32.9722Z" fill="#F5B868"/>
<path d="M15.3873 35.7336C15.2149 35.9401 14.8762 35.946 14.6325 35.7395C14.3888 35.5389 14.3294 35.2026 14.5017 34.9961L16.1778 33.0017C16.3501 32.7952 16.6889 32.7893 16.9326 32.9958C17.1762 33.1964 17.2357 33.5327 17.0574 33.7392L15.3813 35.7336H15.3873Z" fill="#FFCB8F"/>
<path d="M16.784 33.9458C16.5284 34.0402 16.2312 33.8809 16.1183 33.5858C16.0054 33.2908 16.1183 32.9722 16.3679 32.8778L18.8047 31.9455C19.0603 31.8511 19.3574 32.0104 19.4704 32.3054C19.5833 32.6005 19.4704 32.9191 19.2207 33.0135L16.784 33.9458Z" fill="#FFCB8F"/>
<path d="M16.9504 33.8867L19.2326 33.0135C19.2921 32.9899 19.3396 32.9545 19.3812 32.9131L16.9088 33.6979C16.9088 33.6979 16.9029 33.6979 16.8969 33.6979C16.8256 33.7215 16.7662 33.7628 16.7186 33.8218L15.4408 35.5035C15.5418 35.4858 15.4943 35.5566 15.5597 35.474L16.9445 33.8808L16.9504 33.8867Z" fill="#F5B868"/>
<path d="M16.2788 36.129C16.1124 36.3001 15.8212 36.2824 15.6191 36.0936C15.417 35.9048 15.3873 35.6097 15.5537 35.4386L17.1346 33.7924C17.3011 33.6213 17.5923 33.639 17.7943 33.8278C17.9964 34.0166 18.0261 34.3116 17.8597 34.4827L16.2788 36.129Z" fill="#FFCB8F"/>
<path d="M17.6279 34.6185C17.3962 34.6775 17.1525 34.5122 17.0812 34.2408C17.0098 33.9753 17.1406 33.7098 17.3664 33.6449L19.5774 33.0666C19.8091 33.0076 20.0528 33.1728 20.1241 33.4443C20.1955 33.7098 20.0647 33.9753 19.8389 34.0343L17.6279 34.6126V34.6185Z" fill="#FFCB8F"/>
<path d="M17.7587 34.5889L19.8448 34.0402C19.9161 34.0225 19.7081 34.0402 19.619 34.0402C19.2089 34.052 17.6874 34.4768 17.6398 34.5122L16.3264 35.9401C16.3264 35.9401 16.3917 36.005 16.4393 35.9578L17.7587 34.583V34.5889Z" fill="#F5B868"/>
<path d="M16.9682 36.8075C16.8137 36.9491 16.5581 36.9255 16.3858 36.7485C16.2134 36.5715 16.2015 36.3119 16.3561 36.1703L17.8181 34.7836C17.9726 34.642 18.2282 34.6656 18.4006 34.8426C18.5729 35.0197 18.5848 35.2793 18.4362 35.4209L16.9742 36.8075H16.9682Z" fill="#FFCB8F"/>
<path d="M18.2044 35.5507C18.0023 35.6038 17.7884 35.4563 17.723 35.2144C17.6636 34.9784 17.7765 34.7423 17.9786 34.6892L19.9339 34.1877C20.136 34.1346 20.35 34.2821 20.4153 34.524C20.4748 34.76 20.3618 34.9961 20.1598 35.0492L18.2044 35.5507Z" fill="#FFCB8F"/>
<path d="M17.7646 31.7626C17.7646 31.7626 17.8122 31.8039 17.8419 31.8747C17.8716 31.9396 17.8657 32.0045 17.8657 32.0045C17.7052 32.0694 17.4615 32.1697 17.3545 32.1638C17.307 32.1638 17.2773 32.1343 17.2713 32.1107C17.2713 32.1107 17.2595 32.0517 17.2951 32.0104C17.3664 31.9278 17.6101 31.8275 17.7706 31.7626H17.7646Z" fill="#FFDFBB"/>
<path d="M18.9533 31.9868C18.9533 31.9868 19.0127 32.0458 19.0484 32.1343C19.084 32.2228 19.0841 32.3054 19.0841 32.3054C18.8998 32.3822 18.6324 32.4943 18.5016 32.4766C18.4422 32.4707 18.4125 32.4353 18.4006 32.3999C18.3827 32.3645 18.3827 32.3231 18.4184 32.2759C18.4957 32.1697 18.7691 32.0635 18.9533 31.9868Z" fill="#FFDFBB"/>
<path d="M19.6605 33.0725C19.6605 33.0725 19.72 33.161 19.7675 33.2849C19.8091 33.4088 19.8151 33.515 19.8151 33.515C19.6249 33.58 19.3515 33.6744 19.2148 33.6272C19.1554 33.6036 19.1197 33.5564 19.1078 33.5092C19.09 33.4619 19.09 33.4029 19.1256 33.3498C19.2029 33.2259 19.4882 33.1374 19.6724 33.0784L19.6605 33.0725Z" fill="#FFDFBB"/>
<path d="M20.0885 34.2467C20.0885 34.2467 20.1479 34.3352 20.1776 34.4591C20.2133 34.583 20.2133 34.6833 20.2133 34.6833C20.0231 34.7364 19.7378 34.8191 19.607 34.7659C19.5476 34.7423 19.5179 34.6951 19.506 34.6479C19.4941 34.6007 19.4941 34.5417 19.5298 34.4945C19.613 34.3765 19.8983 34.2998 20.0885 34.2467Z" fill="#FFDFBB"/>
<path d="M15.6547 32.9898C15.6547 32.9898 15.6607 32.9485 15.6429 32.9308L15.417 32.7184C15.417 32.7184 15.3695 32.6948 15.3576 32.7125C15.3576 32.7125 15.3516 32.7538 15.3695 32.7715L15.5894 32.9839C15.5894 32.9839 15.6369 33.0075 15.6488 32.9957L15.6547 32.9898Z" fill="#FFDFBB"/>
<path d="M15.7558 32.8896C15.7558 32.8896 15.7617 32.8483 15.7439 32.8306L15.524 32.6181C15.524 32.6181 15.4765 32.5945 15.4646 32.6122C15.4646 32.6122 15.4586 32.6535 15.4765 32.6712L15.6964 32.8837C15.6964 32.8837 15.7439 32.9073 15.7558 32.8896Z" fill="#FFDFBB"/>
<path d="M16.3858 33.4737C16.3858 33.4737 16.4036 33.4383 16.3858 33.4206L16.2134 33.2023C16.2134 33.2023 16.1718 33.1787 16.1599 33.1905C16.1599 33.1905 16.1421 33.2259 16.1599 33.2495L16.3323 33.4678C16.3323 33.4678 16.3739 33.4914 16.3858 33.4796V33.4737Z" fill="#FFDFBB"/>
<path d="M16.4987 33.3852C16.4987 33.3852 16.5165 33.3498 16.4987 33.3262L16.3263 33.1079C16.3263 33.1079 16.2847 33.0843 16.2728 33.0961C16.2728 33.0961 16.255 33.1315 16.2728 33.1492L16.4452 33.3675C16.4452 33.3675 16.4868 33.3911 16.4987 33.3793V33.3852Z" fill="#FFDFBB"/>
<path d="M18.0083 32.9368C18.0083 32.9368 18.0261 32.9014 18.0083 32.8837L17.8538 32.6535C17.8538 32.6535 17.8181 32.624 17.8003 32.6358C17.8003 32.6358 17.7825 32.6712 17.8003 32.6889L17.9548 32.9191C17.9548 32.9191 17.9905 32.9486 18.0083 32.9368Z" fill="#FFD5A5"/>
<path d="M18.1272 32.86C18.1272 32.86 18.145 32.8246 18.1272 32.8069L17.9726 32.5768C17.9726 32.5768 17.937 32.5473 17.9191 32.5591C17.9191 32.5591 17.9013 32.5945 17.9191 32.6122L18.0737 32.8423C18.0737 32.8423 18.1093 32.8718 18.1272 32.86Z" fill="#FFD5A5"/>
<path d="M18.769 33.8336C18.769 33.8336 18.7869 33.7982 18.775 33.7805L18.6383 33.5386C18.6383 33.5386 18.6026 33.5091 18.5848 33.5209C18.5848 33.5209 18.567 33.5563 18.5789 33.574L18.7156 33.8159C18.7156 33.8159 18.7512 33.8454 18.769 33.8336Z" fill="#FFD5A5"/>
<path d="M18.8998 33.7628C18.8998 33.7628 18.9176 33.7274 18.9058 33.7097L18.7691 33.4678C18.7691 33.4678 18.7334 33.4383 18.7156 33.4501C18.7156 33.4501 18.6977 33.4855 18.7096 33.5032L18.8463 33.7451C18.8463 33.7451 18.882 33.7746 18.8998 33.7628Z" fill="#FFD5A5"/>
<path d="M19.1791 34.878C19.1791 34.878 19.2029 34.8426 19.191 34.8249L19.0662 34.5771C19.0662 34.5771 19.0305 34.5476 19.0127 34.5535C19.0127 34.5535 18.9889 34.5889 19.0008 34.6066L19.1256 34.8544C19.1256 34.8544 19.1613 34.8839 19.1791 34.878Z" fill="#FFD5A5"/>
<path d="M19.3039 34.8132C19.3039 34.8132 19.3277 34.7778 19.3158 34.7601L19.191 34.5122C19.191 34.5122 19.1554 34.4827 19.1375 34.4886C19.1375 34.4886 19.1138 34.524 19.1256 34.5417L19.2505 34.7896C19.2505 34.7896 19.2861 34.8191 19.3039 34.8132Z" fill="#FFD5A5"/>
<path d="M16.8434 32.388C16.8434 32.388 16.8612 32.3585 16.8553 32.3408L16.7424 32.1815C16.7424 32.1815 16.7127 32.1638 16.6948 32.1815C16.6948 32.1815 16.677 32.211 16.6829 32.2287L16.7959 32.388C16.7959 32.388 16.8256 32.4057 16.8434 32.388Z" fill="#FFD5A5"/>
<path d="M16.9623 32.3054C16.9623 32.3054 16.9801 32.2759 16.9742 32.2582L16.8612 32.0989C16.8612 32.0989 16.8315 32.0812 16.8137 32.0989C16.8137 32.0989 16.7959 32.1284 16.8018 32.1461L16.9147 32.3054C16.9147 32.3054 16.9445 32.3232 16.9623 32.3054Z" fill="#FFD5A5"/>
<path d="M15.1199 35.4622C15.1199 35.4622 15.1199 35.4209 15.102 35.4091L14.8702 35.2498C14.8702 35.2498 14.8286 35.238 14.8167 35.2498C14.8167 35.2498 14.8167 35.2911 14.8346 35.3029L15.0664 35.4622C15.0664 35.4622 15.108 35.474 15.1199 35.4622Z" fill="#FFD5A5"/>
<path d="M15.2031 35.3442C15.2031 35.3442 15.2031 35.3029 15.1852 35.2911L14.9535 35.1318C14.9535 35.1318 14.9059 35.12 14.9 35.1318C14.9 35.1318 14.9 35.1731 14.9178 35.1849L15.1496 35.3442C15.1496 35.3442 15.1971 35.356 15.2031 35.3442Z" fill="#FFD5A5"/>
<path d="M15.9994 35.9461C15.9994 35.9461 15.9994 35.9048 15.9816 35.893L15.7379 35.7514C15.7379 35.7514 15.6904 35.7395 15.6844 35.7573C15.6844 35.7573 15.6844 35.7986 15.7023 35.8104L15.94 35.952C15.94 35.952 15.9876 35.9579 15.9935 35.9461H15.9994Z" fill="#FFD5A5"/>
<path d="M16.0708 35.8222C16.0708 35.8222 16.0708 35.7809 16.0529 35.7691L15.8152 35.6275C15.8152 35.6275 15.7677 35.6216 15.7617 35.6334C15.7617 35.6334 15.7617 35.6747 15.7795 35.6865L16.0232 35.8281C16.0232 35.8281 16.0708 35.834 16.0767 35.8222H16.0708Z" fill="#FFD5A5"/>
<path d="M16.9563 36.4181C16.9563 36.4181 16.9563 36.3886 16.9444 36.3768L16.7602 36.2588C16.7602 36.2588 16.7245 36.2529 16.7186 36.2588C16.7186 36.2588 16.7186 36.2883 16.7305 36.3001L16.9147 36.4181C16.9147 36.4181 16.9504 36.424 16.9563 36.4181Z" fill="#FFD5A5"/>
<path d="M17.0158 36.3237C17.0158 36.3237 17.0158 36.2942 17.0039 36.2824L16.8196 36.1703C16.8196 36.1703 16.784 36.1644 16.778 36.1703C16.778 36.1703 16.778 36.1998 16.7899 36.2116L16.9742 36.3296C16.9742 36.3296 17.0098 36.3355 17.0158 36.3296V36.3237Z" fill="#FFD5A5"/>
<path d="M14.1273 34.8663C14.1273 34.8663 14.1392 34.8309 14.1273 34.8191L13.9728 34.7011C13.9728 34.7011 13.9371 34.6952 13.9252 34.7129C13.9252 34.7129 13.9133 34.7483 13.9252 34.7601L14.0798 34.8781C14.0798 34.8781 14.1154 34.8781 14.1273 34.8663Z" fill="#FFD5A5"/>
<path d="M14.2165 34.7542C14.2165 34.7542 14.2283 34.7188 14.2165 34.707L14.0619 34.589C14.0619 34.589 14.0263 34.5831 14.0144 34.6008C14.0144 34.6008 14.0025 34.6362 14.0144 34.648L14.1689 34.766C14.1689 34.766 14.2046 34.766 14.2165 34.7542Z" fill="#FFD5A5"/>
<path d="M17.3961 34.1346C17.3961 34.1346 17.414 34.0992 17.3961 34.0815L17.2416 33.8514C17.2416 33.8514 17.206 33.8219 17.1881 33.8337C17.1881 33.8337 17.1703 33.8691 17.1881 33.8868L17.3427 34.1169C17.3427 34.1169 17.3783 34.1464 17.3961 34.1346Z" fill="#FFDFBB"/>
<path d="M17.515 34.0579C17.515 34.0579 17.5328 34.0225 17.515 34.0048L17.3605 33.7746C17.3605 33.7746 17.3248 33.7451 17.307 33.7569C17.307 33.7569 17.2892 33.7923 17.307 33.81L17.4615 34.0402C17.4615 34.0402 17.4972 34.0697 17.515 34.0579Z" fill="#FFDFBB"/>
<path d="M18.0677 35.2085C18.0677 35.2085 18.0856 35.1731 18.0737 35.1554L17.931 34.9194C17.931 34.9194 17.8954 34.8899 17.8776 34.9017C17.8776 34.9017 17.8597 34.9371 17.8716 34.9548L18.0142 35.1908C18.0142 35.1908 18.0499 35.2203 18.0677 35.2085Z" fill="#FFDFBB"/>
<path d="M18.1866 35.1318C18.1866 35.1318 18.2044 35.0964 18.1925 35.0787L18.0499 34.8426C18.0499 34.8426 18.0142 34.8131 17.9964 34.8249C17.9964 34.8249 17.9786 34.8603 17.9905 34.878L18.1331 35.1141C18.1331 35.1141 18.1688 35.1436 18.1866 35.1318Z" fill="#FFDFBB"/>
<path d="M29.0867 34.4886L29.8118 35.4386C29.8118 35.4386 27.7435 38.9022 27.6484 39.1206V41.7345H24.8372L25.2949 39.4687C25.2949 39.4687 24.6114 37.2265 25.7049 36.5007C27.1373 35.5448 29.0867 34.4886 29.0867 34.4886Z" fill="#FFCB8F"/>
<path d="M24.1894 42H28.0942V40.277L24.1894 40.4304V42Z" fill="#818112"/>
<path d="M28.3616 35.0846C28.5161 35.2675 28.8133 35.2734 29.0332 35.0905C29.2471 34.9135 29.0867 34.4886 29.0867 34.4886L27.6662 32.6772C27.5117 32.4943 27.2145 32.4943 26.9946 32.6713C26.7807 32.8483 26.7272 33.1433 26.8817 33.3262L28.3616 35.0905V35.0846Z" fill="#FFCB8F"/>
<path d="M27.1313 33.5032C27.3572 33.5917 27.6187 33.4442 27.7197 33.1846C27.8207 32.925 27.7197 32.6418 27.4998 32.5591L25.3424 31.7331C25.1165 31.6505 24.855 31.7921 24.754 32.0517C24.653 32.3113 24.754 32.5946 24.9739 32.6772L27.1313 33.5032Z" fill="#FFCB8F"/>
<path d="M26.6559 32.9722L24.2666 32.0753C24.1834 32.0458 24.1121 31.9868 24.0646 31.916C24.0646 31.916 26.8579 32.8306 26.9055 32.8955C27.3156 33.4207 28.5042 35.0138 28.5042 35.0138C28.421 34.9902 28.3497 34.943 28.2903 34.8781L26.6618 32.9781L26.6559 32.9722Z" fill="#F5B868"/>
<path d="M27.6127 35.7336C27.7851 35.9401 28.1238 35.946 28.3675 35.7395C28.6112 35.5389 28.6706 35.2026 28.4983 34.9961L26.8223 33.0017C26.6499 32.7952 26.3111 32.7893 26.0675 32.9958C25.8238 33.1964 25.7643 33.5327 25.9367 33.7392L27.6127 35.7336Z" fill="#FFCB8F"/>
<path d="M26.216 33.9458C26.4716 34.0402 26.7688 33.8809 26.8817 33.5858C26.9946 33.2908 26.8817 32.9722 26.6321 32.8778L24.1953 31.9455C23.9398 31.8511 23.6426 32.0104 23.5297 32.3054C23.4167 32.6005 23.5297 32.9191 23.7793 33.0135L26.216 33.9458Z" fill="#FFCB8F"/>
<path d="M26.0497 33.8868L23.7674 33.0135C23.708 32.9899 23.6604 32.9545 23.6188 32.9132L26.0913 33.698C26.0913 33.698 26.0972 33.698 26.1031 33.698C26.1745 33.7216 26.2339 33.7629 26.2814 33.8219L27.5593 35.5035C27.4582 35.4858 27.5058 35.5566 27.4404 35.474L26.0556 33.8809L26.0497 33.8868Z" fill="#F5B868"/>
<path d="M26.7212 36.129C26.8876 36.3001 27.1789 36.2824 27.3809 36.0936C27.583 35.9048 27.6127 35.6097 27.4463 35.4386L25.8654 33.7924C25.699 33.6213 25.4077 33.639 25.2057 33.8278C25.0036 34.0166 24.9739 34.3116 25.1403 34.4827L26.7212 36.129Z" fill="#FFCB8F"/>
<path d="M25.3721 34.6185C25.6039 34.6775 25.8476 34.5122 25.9189 34.2408C25.9902 33.9753 25.8594 33.7098 25.6336 33.6449L23.4227 33.0666C23.1909 33.0076 22.9472 33.1728 22.8759 33.4443C22.8046 33.7098 22.9353 33.9753 23.1612 34.0343L25.3721 34.6126V34.6185Z" fill="#FFCB8F"/>
<path d="M25.2473 34.5889L23.1612 34.0402C23.0899 34.0225 23.2979 34.0402 23.387 34.0402C23.7971 34.052 25.3186 34.4768 25.3662 34.5122L26.6797 35.9401C26.6797 35.9401 26.6143 36.005 26.5667 35.9578L25.2473 34.583V34.5889Z" fill="#F5B868"/>
<path d="M26.0318 36.8075C26.1804 36.9491 26.4419 36.9255 26.6143 36.7485C26.7866 36.5715 26.7985 36.3119 26.644 36.1703L25.1819 34.7836C25.0274 34.642 24.7718 34.6656 24.5995 34.8426C24.4271 35.0197 24.4152 35.2793 24.5698 35.4209L26.0318 36.8075Z" fill="#FFCB8F"/>
<path d="M24.8015 35.5507C25.0036 35.6038 25.2176 35.4563 25.283 35.2144C25.3424 34.9784 25.2295 34.7423 25.0274 34.6892L23.072 34.1877C22.87 34.1346 22.656 34.2821 22.5906 34.524C22.5312 34.76 22.6441 34.9961 22.8462 35.0492L24.8015 35.5507Z" fill="#FFCB8F"/>
<path d="M25.2354 31.7626C25.2354 31.7626 25.1879 31.8039 25.1581 31.8747C25.1284 31.9396 25.1344 32.0045 25.1344 32.0045C25.2948 32.0694 25.5385 32.1697 25.6455 32.1638C25.693 32.1638 25.7228 32.1343 25.7287 32.1107C25.7287 32.1107 25.7406 32.0517 25.7049 32.0104C25.6336 31.9278 25.3899 31.8275 25.2295 31.7626H25.2354Z" fill="#FFDFBB"/>
<path d="M24.0527 31.9868C24.0527 31.9868 23.9933 32.0458 23.9576 32.1343C23.9219 32.2228 23.9219 32.3054 23.9219 32.3054C24.1062 32.3822 24.3736 32.4943 24.5044 32.4766C24.5638 32.4707 24.5935 32.4353 24.6054 32.3999C24.6233 32.3645 24.6232 32.3231 24.5876 32.2759C24.5103 32.1697 24.2369 32.0635 24.0527 31.9868Z" fill="#FFDFBB"/>
<path d="M23.3395 33.0725C23.3395 33.0725 23.2801 33.161 23.2325 33.2849C23.1909 33.4088 23.185 33.515 23.185 33.515C23.3752 33.58 23.6485 33.6744 23.7852 33.6272C23.8447 33.6036 23.8803 33.5564 23.8922 33.5092C23.9101 33.4619 23.9101 33.4029 23.8744 33.3498C23.7971 33.2259 23.5178 33.1374 23.3276 33.0784L23.3395 33.0725Z" fill="#FFDFBB"/>
<path d="M22.9175 34.2467C22.9175 34.2467 22.8581 34.3352 22.8224 34.4591C22.7867 34.583 22.7867 34.6833 22.7867 34.6833C22.9769 34.7364 23.2622 34.8191 23.393 34.7659C23.4524 34.7423 23.4821 34.6951 23.494 34.6479C23.5059 34.6007 23.5059 34.5417 23.4702 34.4945C23.387 34.3765 23.1017 34.2998 22.9116 34.2467H22.9175Z" fill="#FFDFBB"/>
<path d="M27.3512 32.9898C27.3512 32.9898 27.3453 32.9485 27.3631 32.9308L27.589 32.7184C27.589 32.7184 27.6365 32.6948 27.6484 32.7125C27.6484 32.7125 27.6543 32.7538 27.6365 32.7715L27.4166 32.9839C27.4166 32.9839 27.3691 33.0075 27.3572 32.9957L27.3512 32.9898Z" fill="#FFDFBB"/>
<path d="M27.2502 32.8896C27.2502 32.8896 27.2443 32.8483 27.2621 32.8306L27.482 32.6181C27.482 32.6181 27.5295 32.5945 27.5414 32.6122C27.5414 32.6122 27.5474 32.6535 27.5295 32.6712L27.3037 32.8837C27.3037 32.8837 27.2561 32.9073 27.2443 32.8896H27.2502Z" fill="#FFDFBB"/>
<path d="M26.6142 33.4737C26.6142 33.4737 26.5964 33.4383 26.6142 33.4206L26.7866 33.2023C26.7866 33.2023 26.8282 33.1787 26.8401 33.1905C26.8401 33.1905 26.8579 33.2259 26.8401 33.2495L26.6677 33.4678C26.6677 33.4678 26.6261 33.4914 26.6142 33.4796V33.4737Z" fill="#FFDFBB"/>
<path d="M26.5013 33.3852C26.5013 33.3852 26.4835 33.3498 26.5013 33.3262L26.6737 33.1079C26.6737 33.1079 26.7153 33.0843 26.7272 33.0961C26.7272 33.0961 26.745 33.1315 26.7272 33.1492L26.5548 33.3675C26.5548 33.3675 26.5132 33.3911 26.5013 33.3793V33.3852Z" fill="#FFDFBB"/>
<path d="M24.9977 32.9368C24.9977 32.9368 24.9798 32.9014 24.9977 32.8837L25.1522 32.6535C25.1522 32.6535 25.1879 32.624 25.2057 32.6358C25.2057 32.6358 25.2235 32.6712 25.2057 32.6889L25.0512 32.9191C25.0512 32.9191 25.0155 32.9486 24.9977 32.9368Z" fill="#FFD5A5"/>
<path d="M24.8729 32.86C24.8729 32.86 24.855 32.8246 24.8729 32.8069L25.0274 32.5768C25.0274 32.5768 25.063 32.5473 25.0809 32.5591C25.0809 32.5591 25.0987 32.5945 25.0809 32.6122L24.9263 32.8423C24.9263 32.8423 24.8907 32.8718 24.8729 32.86Z" fill="#FFD5A5"/>
<path d="M24.231 33.8336C24.231 33.8336 24.2132 33.7982 24.2251 33.7805L24.3618 33.5386C24.3618 33.5386 24.3974 33.5091 24.4153 33.5209C24.4153 33.5209 24.4331 33.5563 24.4212 33.574L24.2845 33.8159C24.2845 33.8159 24.2488 33.8454 24.231 33.8336Z" fill="#FFD5A5"/>
<path d="M24.1062 33.7628C24.1062 33.7628 24.0884 33.7274 24.1002 33.7097L24.2369 33.4678C24.2369 33.4678 24.2726 33.4383 24.2904 33.4501C24.2904 33.4501 24.3083 33.4855 24.2964 33.5032L24.1597 33.7451C24.1597 33.7451 24.124 33.7746 24.1062 33.7628Z" fill="#FFD5A5"/>
<path d="M23.8269 34.878C23.8269 34.878 23.8031 34.8426 23.815 34.8249L23.9398 34.5771C23.9398 34.5771 23.9754 34.5476 23.9933 34.5535C23.9933 34.5535 24.017 34.5889 24.0052 34.6066L23.8804 34.8544C23.8804 34.8544 23.8447 34.8839 23.8269 34.878Z" fill="#FFD5A5"/>
<path d="M23.6961 34.8132C23.6961 34.8132 23.6723 34.7778 23.6842 34.7601L23.809 34.5122C23.809 34.5122 23.8447 34.4827 23.8625 34.4886C23.8625 34.4886 23.8863 34.524 23.8744 34.5417L23.7496 34.7896C23.7496 34.7896 23.7139 34.8191 23.6961 34.8132Z" fill="#FFD5A5"/>
<path d="M26.1566 32.388C26.1566 32.388 26.1388 32.3585 26.1447 32.3408L26.2577 32.1815C26.2577 32.1815 26.2874 32.1638 26.3052 32.1815C26.3052 32.1815 26.323 32.211 26.3171 32.2287L26.2042 32.388C26.2042 32.388 26.1745 32.4057 26.1566 32.388Z" fill="#FFD5A5"/>
<path d="M26.0437 32.3054C26.0437 32.3054 26.0259 32.2759 26.0318 32.2582L26.1447 32.0989C26.1447 32.0989 26.1745 32.0812 26.1923 32.0989C26.1923 32.0989 26.2101 32.1284 26.2042 32.1461L26.0913 32.3054C26.0913 32.3054 26.0615 32.3232 26.0437 32.3054Z" fill="#FFD5A5"/>
<path d="M27.8802 35.4622C27.8802 35.4622 27.8802 35.4209 27.898 35.4091L28.1298 35.2498C28.1298 35.2498 28.1774 35.238 28.1833 35.2498C28.1833 35.2498 28.1833 35.2911 28.1655 35.3029L27.9337 35.4622C27.9337 35.4622 27.8862 35.474 27.8802 35.4622Z" fill="#FFD5A5"/>
<path d="M27.797 35.3442C27.797 35.3442 27.797 35.3029 27.8148 35.2911L28.0466 35.1318C28.0466 35.1318 28.0942 35.12 28.1061 35.1318C28.1061 35.1318 28.106 35.1731 28.0882 35.1849L27.8564 35.3442C27.8564 35.3442 27.8089 35.356 27.8029 35.3442H27.797Z" fill="#FFD5A5"/>
<path d="M27.0065 35.9461C27.0065 35.9461 27.0065 35.9048 27.0244 35.893L27.268 35.7514C27.268 35.7514 27.3156 35.7395 27.3215 35.7573C27.3215 35.7573 27.3215 35.7986 27.3037 35.8104L27.06 35.952C27.06 35.952 27.0125 35.9579 27.0065 35.9461Z" fill="#FFD5A5"/>
<path d="M26.9352 35.8222C26.9352 35.8222 26.9352 35.7809 26.953 35.7691L27.1967 35.6275C27.1967 35.6275 27.2443 35.6216 27.2502 35.6334C27.2502 35.6334 27.2502 35.6747 27.2324 35.6865L26.9887 35.8281C26.9887 35.8281 26.9412 35.834 26.9352 35.8222Z" fill="#FFD5A5"/>
<path d="M26.0437 36.4181C26.0437 36.4181 26.0437 36.3886 26.0556 36.3768L26.2398 36.2588C26.2398 36.2588 26.2755 36.2529 26.2814 36.2588C26.2814 36.2588 26.2814 36.2883 26.2695 36.3001L26.0853 36.4181C26.0853 36.4181 26.0496 36.424 26.0437 36.4181Z" fill="#FFD5A5"/>
<path d="M25.9843 36.3237C25.9843 36.3237 25.9843 36.2942 25.9962 36.2824L26.1804 36.1703C26.1804 36.1703 26.2161 36.1644 26.222 36.1703C26.222 36.1703 26.222 36.1998 26.2101 36.2116L26.0259 36.3296C26.0259 36.3296 25.9902 36.3355 25.9843 36.3296V36.3237Z" fill="#FFD5A5"/>
<path d="M28.8727 34.8663C28.8727 34.8663 28.8608 34.8309 28.8727 34.8191L29.0272 34.7011C29.0272 34.7011 29.0629 34.6952 29.0748 34.7129C29.0748 34.7129 29.0867 34.7483 29.0748 34.7601L28.9203 34.8781C28.9203 34.8781 28.8846 34.8781 28.8727 34.8663Z" fill="#FFD5A5"/>
<path d="M28.7836 34.7542C28.7836 34.7542 28.7717 34.7188 28.7836 34.707L28.9381 34.589C28.9381 34.589 28.9738 34.5831 28.9856 34.6008C28.9856 34.6008 28.9975 34.6362 28.9856 34.648L28.8311 34.766C28.8311 34.766 28.7955 34.766 28.7836 34.7542Z" fill="#FFD5A5"/>
<path d="M25.6039 34.1346C25.6039 34.1346 25.5861 34.0992 25.6039 34.0815L25.7584 33.8514C25.7584 33.8514 25.7941 33.8219 25.8119 33.8337C25.8119 33.8337 25.8297 33.8691 25.8119 33.8868L25.6574 34.1169C25.6574 34.1169 25.6217 34.1464 25.6039 34.1346Z" fill="#FFDFBB"/>
<path d="M25.485 34.0579C25.485 34.0579 25.4672 34.0225 25.485 34.0048L25.6396 33.7746C25.6396 33.7746 25.6752 33.7451 25.6931 33.7569C25.6931 33.7569 25.7109 33.7923 25.6931 33.81L25.5385 34.0402C25.5385 34.0402 25.5029 34.0697 25.485 34.0579Z" fill="#FFDFBB"/>
<path d="M24.9383 35.2085C24.9383 35.2085 24.9204 35.1731 24.9323 35.1554L25.0749 34.9194C25.0749 34.9194 25.1106 34.8899 25.1284 34.9017C25.1284 34.9017 25.1463 34.9371 25.1344 34.9548L24.9917 35.1908C24.9917 35.1908 24.9561 35.2203 24.9383 35.2085Z" fill="#FFDFBB"/>
<path d="M24.8134 35.1318C24.8134 35.1318 24.7956 35.0964 24.8075 35.0787L24.9501 34.8426C24.9501 34.8426 24.9858 34.8131 25.0036 34.8249C25.0036 34.8249 25.0215 34.8603 25.0096 34.878L24.8669 35.1141C24.8669 35.1141 24.8313 35.1436 24.8134 35.1318Z" fill="#FFDFBB"/>
<path d="M21.4213 16.4924L20.0726 17.7644C19.8346 17.9889 19.825 18.3624 20.0511 18.5986C20.2771 18.8349 20.6533 18.8445 20.8913 18.62L22.24 17.348C22.478 17.1236 22.4876 16.7501 22.2616 16.5139C22.0355 16.2776 21.6593 16.268 21.4213 16.4924Z" fill="#BABE31"/>
<path d="M21.0647 18.0464L22.4442 19.4881C22.5866 19.637 22.8227 19.6439 22.9714 19.5036C23.1201 19.3634 23.1253 19.129 22.9828 18.9801L21.6034 17.5385C21.4609 17.3896 21.2249 17.3827 21.0762 17.5229C20.9274 17.6632 20.9223 17.8976 21.0647 18.0464Z" fill="#BABE31"/>
</g>
<defs>
<clipPath id="clip0_186_128">
<rect width="43" height="42" fill="white"/>
</clipPath>
</defs>
</svg>
